<?xml version="1.0" encoding="UTF-8"?>
<svg id="Layer_1" data-name="Layer 1" xmlns="http://www.w3.org/2000/svg" viewBox="0 0 1080 1080">
  <rect width="1080" height="1080" fill="#fff"/>
  <g>
    <path d="m521.038,759.324c.066,9.425-4.843,17.102-8.819,25.107-7.929-2.517-11.985-12.39-22.736-12.497,4.518,8.287,12.732,10.466,17.468,16.385-5.632,7.495-11.264,14.99-16.896,22.485-2.46-9.378-13.511-19.446-23.214-18.087,6.703,5.81,12.07,10.46,17.436,15.111-4.074,6.663-11.192,8.819-17.799,11.129-27.286,9.541-55.236,11.292-84.045,8.602-23.569-2.2-45.903-8.192-67.504-16.897-17.974-7.244-33.661-18.878-48.745-30.96-16.107-12.902-31.334-26.702-42.965-44.138-9.862-14.783-18.019-30.343-25.508-46.436-11.27-24.218-16.336-50.104-18.5-76.086-1.991-23.892-2.249-48.145,1.931-72.29,4.485-25.905,8.893-51.682,17.833-76.522,14.645-40.689,36.627-76.71,66.431-108.16,40.019-42.231,88.35-70.858,142.901-89.953,25.384-8.885,51.337-15.084,77.853-19.192,6.8-1.053,10.683-4.529,12.376-11.689,3.071-12.985,6.71-25.372,18.631-34.395,14.508-10.981,42.612-2.248,48.949,13.72.495,1.247,1.265,2.422,1.55,3.71,4.818,21.768,8.405,21.719,33.934,22.097,6.246.093,10.178,3.752,15.292,5.374,14.334,4.549,27.61,11.109,39.568,20.817,12.258,9.952,20.646,22.534,28.356,35.711,8.481,14.493,15.276,30.021,24.348,44.105,7.057,10.955,17.006,19.894,26.42,29.044,2.247,2.184,5.289,3.963,5.23,7.757-1.999,3.684-4.693,7.156-5.883,11.084-8.94,29.509,7.712,54.882,38.085,60.062,2.201,13.837-13.852,27.353-26.403,31.696-14.393,4.98-28.936,8.382-44.492,8.665-16.805.306-33.353.044-49.801-3.532-3.016-.656-5.538-1.874-7.597-4.075-1.657-2.545-.859-5.813-3.137-8.448-5.472-6.328-8.175-14.267-10.145-22.19-2.594-10.431,1.623-19.881,6.135-29.005,2.809-5.68,8.218-6.017,13.697-6.079,1.597-.018,3.394-.487,3.433-2.596.043-2.319-1.864-2.114-3.439-2.317-6.705-.862-12.714-2.745-16.756-8.955-1.991-3.059-5.379-2.412-9.146-1.16,3.647,5.887,9.918,10.246,6.146,18.105-9.539,19.878-6.432,39.145,3.456,57.938-14.656,2.668-27.313-2.287-39.281-10.135-4.484-2.94-9.215-5.502-13.805-8.284-1.568-.95-3.333-2.897-4.901-1.012-1.662,1.997.827,3.321,2.037,4.497,10.786,10.484,20.822,21.58,30.163,33.42,20.308,25.739,34.776,54.297,40.09,86.602,2.37,14.407.666,29.487.763,44.263.013,2.016-.791,3.703-2.931,4.308-2.539.718-4.211-.851-5.411-2.621-4.344-6.409-10.032-11.865-13.101-19.187-7.983-19.045-22.04-34.039-34.14-50.293-15.469-20.778-36.627-35.014-58.454-48.123-8.025-4.82-17.909-5.035-26.814-7.831-4.015-1.261-6.843-2.952-8.909-7.089-3.219-6.448-7.822-12.084-13.178-17.137-10.721-10.113-24.056-10.649-34.016.184-11.108,12.081-23.046,21.386-39.749,25.405-14.739,3.546-25.819,14.979-37.479,24.403-4.263,3.445-9.756,5.997-11.589,11.919-5.581-1.31-10.606-.18-15.605,2.674-4.957,2.831-9.589,6.207-13.244,10.325-10.763,12.126-22.872,23.804-21.179,42.256.793,13.285,7.114,23.807,16.083,33.213,14.137,14.827,32.194,21.256,51.661,24.876-.143,8.144,5.196,2.842,8.173,3.332,3.334,2.675,7.31,1.612,10.886,1.378,23.436-1.531,46.366,1.824,68.542,8.726,8.318,2.589,16.341,8.342,22.692,14.512,9.161,8.901,17.623,18.9,23.162,30.63,5.152,10.91,8.102,22.535,7.246,34.822-3.372,1.214-5.287-1.91-7.975-2.765-5.108-1.627-9.773-5.369-15.775-2.58,3.74,2.268,7.269,4.606,10.98,6.605,3.661,1.972,8.26,2.108,11.13,5.663Zm35.812-519.043c-.245-13.795-6.478-19.744-12.558-23.666-6.643-4.285-16.907-1.527-19.903,5.016-1.75,3.82-3.038,7.905-5.196,11.469-2.03,3.352-1.441,6.583-.923,9.946.047.302,1.459.789,1.945.563,3.475-1.616,3.351-5.058,3.893-8.143.046-.261-.039-.554.038-.801,2.103-6.755,3.306-15.276,11.441-16.478,8.144-1.204,12.814,5.699,15.684,12.512,1.247,2.96,3.341,4.989,5.579,9.582Zm74.59,106.127c-4.576-8.006-12.265-9.98-20.026-10.612-8.789-.716-15.602,4.397-21.941,9.875-.927.801-1.096,2.024-.312,2.818.781.791,1.875.923,3.244.779,2.788-.292,4.014-2.488,5.935-3.82,6.806-4.72,13.623-6.642,21.524-1.881,3.064,1.847,6.33,5.243,11.576,2.841Z" fill="#b8e3ea"/>
    <path d="m706.731,771.153c2.079,21.43-22.13,43.88-45.775,43.13-24.65-.782-43.194-20.049-43.121-46.31.06-21.657,21.604-42.73,43.566-42.615,24.716.13,45.415,21.041,45.33,45.795Z" fill="#efb7cd"/>
    <path d="m805.261,681.67c1.407,25.665-19.787,38.89-35.725,38.099-19.796-.983-35.102-11.519-35.354-35.555-.217-20.699,15.502-37.804,34.531-38.005,18.259-.193,36.552,17.557,36.547,35.462Z" fill="#efb7cd"/>
    <path d="m773.016,454.323c-30.373-5.18-47.025-30.553-38.085-60.062,1.19-3.928,3.884-7.4,5.883-11.084,18.957-1.545,36.922,10.659,43.681,28.254,3.795,9.879,3.264,19.339,1.63,29.274-1.28,7.785-5.461,12.233-13.109,13.618Z" fill="#443234"/>
    <path d="m798.757,583.749c-1.572-16.361,16.426-27.506,28.698-27.782,13.492-.303,27.792,15.622,27.702,29.672-.092,14.297-14.121,26.711-30.042,26.583-15.206-.122-26.377-12.188-26.358-28.474Z" fill="#efb7cd"/>
    <path d="m314.234,600.912c-1.693-18.451,10.416-30.13,21.179-42.256,3.655-4.118,8.287-7.494,13.244-10.325,4.998-2.855,10.024-3.985,15.605-2.674,6.101,7.371,2.113,15.042-.022,22.177-4.835,16.158-13.936,28.996-29.83,36.631-8.167,3.923-14.467,3.451-20.175-3.553Z" fill="#443234"/>
    <path d="m840.684,497.594c-.951-15.495,8.163-25.919,25.571-25.737,12.502.131,22.376,8.719,22.857,22.975.457,13.532-11.596,28.359-22.724,26.56-14.458-2.337-27.972-8.239-25.705-23.798Z" fill="#efb7cd"/>
    <path d="m902.181,414.992c.023,10.683-9.419,19.288-21.392,19.493-12.361.212-22.189-9.33-22.262-21.615-.077-12.985,9.385-21.876,23.383-21.972,11.706-.08,20.24,10.063,20.271,24.094Z" fill="#efb7cd"/>
    <path d="m634.966,482.369c-9.888-18.794-12.995-38.06-3.456-57.938,3.771-7.859-2.499-12.218-6.146-18.105,3.767-1.251,7.155-1.898,9.146,1.16,4.043,6.211,10.051,8.093,16.756,8.955,1.575.203,3.482-.002,3.439,2.317-.039,2.109-1.836,2.578-3.433,2.596-5.479.063-10.888.4-13.697,6.079-4.512,9.124-8.73,18.574-6.135,29.005,1.97,7.923,4.673,15.862,10.145,22.19,2.278,2.634,1.48,5.903,3.137,8.448-6.749,5.631-6.397-3.382-9.756-4.708Z" fill="#443234"/>
    <path d="m390.151,662.334c-2.977-.491-8.316,4.812-8.173-3.332,8.183-4.693,16.455-9.045,22.625-16.721,4.189-5.212,7.306-9.077-.346-13.736-2.554-1.555-4.313-4.415-6.598-6.851,4.118-2.807,6.64-.746,9.018,1.405,4.786,4.329,9.725,6.865,16.503,4.092,1.96-.802,6.574-2.441,6.991,1.993.327,3.481-3.61,3.924-6.364,4.047-2.873.128-5.258.748-7.077,3.071-7.709,9.851-15.987,19.124-26.579,26.033Z" fill="#443234"/>
    <path d="m455.922,498.554c2.45-4.922,6.021-8.305,10.243-10.938,4.667-2.911,9.249-1.978,13.064,1.658,4.636,4.42,5.07,10.251,4.573,16.228-.115,1.386-1.145,1.572-2.284,1.602-1.804.047-3.242-.945-3.807-2.362-.56-1.405-.594-3.201-.31-4.723.548-2.937.115-5.79-2.522-6.959-2.613-1.158-5.596-.771-8.201,1.274-2.95,2.316-5.573,5.824-10.755,4.22Z" fill="#443234"/>
    <path d="m457.133,576.263c-2.234-3.215-4.432-6.458-6.711-9.643-5.012-7.005-17.579-7.89-23.638-3.746-1.44.985-3.682,4.54-5.844,1.24-1.752-2.674,1.217-4.535,2.938-5.805,6.374-4.702,14.024-3.809,20.592-1.863,7.169,2.123,12.397,7.99,15.026,15.406.698,1.968-.467,3.493-2.363,4.412Z" fill="#443234"/>
    <path d="m506.952,788.319c-4.736-5.919-12.95-8.098-17.468-16.385,10.751.107,14.807,9.981,22.736,12.497.467,2.249,4.164,4.447,1.062,6.65-2.675,1.899-4.484-1.138-6.329-2.762Z" fill="#443234"/>
    <path d="m521.038,759.324c-2.87-3.555-7.469-3.691-11.13-5.663-3.711-1.999-7.24-4.336-10.98-6.605,6.002-2.789,10.668.954,15.775,2.58,2.688.856,4.603,3.979,7.975,2.765,2.921,3.129,3.238,5.641-1.64,6.922Z" fill="#443234"/>
    <path d="m484.277,807.827c-5.366-4.651-10.733-9.301-17.436-15.111,9.703-1.358,20.754,8.709,23.214,18.087-2.994,1.081-4.465-.794-5.778-2.976Z" fill="#443234"/>
    <path d="m556.85,240.282c-2.238-4.593-4.332-6.622-5.579-9.582-2.87-6.813-7.54-13.716-15.684-12.512-8.135,1.202-9.338,9.722-11.441,16.478-.077.247.008.539-.038.801-.542,3.085-.418,6.527-3.893,8.143-.486.226-1.898-.262-1.945-.563-.518-3.363-1.107-6.593.923-9.946,2.158-3.565,3.446-7.649,5.196-11.469,2.996-6.542,13.26-9.301,19.903-5.016,6.08,3.922,12.314,9.871,12.558,23.666Z" fill="#443234"/>
    <path d="m631.44,346.408c-5.246,2.401-8.511-.995-11.576-2.841-7.901-4.761-14.718-2.839-21.524,1.881-1.921,1.332-3.147,3.529-5.935,3.82-1.37.143-2.463.012-3.244-.779-.783-.794-.614-2.017.312-2.818,6.339-5.478,13.152-10.591,21.941-9.875,7.761.633,15.449,2.606,20.026,10.612Z" fill="#443234"/>
  </g>
</svg>