<svg xmlns="http://www.w3.org/2000/svg" xmlns:xlink="http://www.w3.org/1999/xlink" width="750" zoomAndPan="magnify" viewBox="0 0 562.5 187.499995" height="250" preserveAspectRatio="xMidYMid meet" version="1.0"><defs><g/><clipPath id="49faca2d89"><path d="M 457.59375 11.851562 L 557.472656 11.851562 L 557.472656 106.097656 L 457.59375 106.097656 Z M 457.59375 11.851562 " clip-rule="nonzero"/></clipPath><clipPath id="688d50a7e3"><path d="M 516.765625 62.003906 C 545.585938 64.367188 551.492188 67.800781 548.242188 97.539062 C 532.582031 97.636719 512.261719 88.617188 508.222656 74.375 C 508.574219 94.324219 530.667969 104.117188 554.261719 106.300781 C 562.601562 74.210938 556.222656 55.550781 516.765625 62.003906 M 506.460938 68.457031 C 500.363281 48.160156 509.792969 30.679688 524.027344 25.949219 C 510.644531 35.667969 506.785156 55.773438 506.460938 68.457031 Z M 517.207031 64.308594 C 538.3125 64.710938 549.90625 73.308594 546.199219 95.128906 C 544.9375 77.484375 534.746094 67.675781 517.207031 64.308594 Z M 506.40625 75.9375 C 495.5 51.964844 502.113281 34.320312 524.992188 21.847656 C 531.972656 37.953125 526 50.433594 516.765625 62.003906 C 532.785156 50.113281 539.589844 34.539062 528.621094 11.851562 C 504.839844 23.003906 486.375 45.410156 500.609375 68.542969 C 490.984375 56.132812 480.109375 39.117188 481.074219 25.285156 C 482.210938 9.101562 501.390625 15.773438 492.253906 37.179688 C 507.839844 15.957031 479.171875 3.128906 476.949219 24.980469 C 475.550781 38.792969 483.375 53.511719 493.238281 64.414062 C 480.980469 53.515625 469.074219 42.167969 457.59375 30.285156 C 469.53125 49.882812 486.769531 64.441406 506.40625 75.9375 Z M 506.40625 75.9375 " clip-rule="nonzero"/></clipPath><linearGradient x1="-209.346311" gradientTransform="matrix(0.0472242, 0, 0, 0.0472242, 457.593526, 3.128208)" y1="1775.731027" x2="2273.647706" gradientUnits="userSpaceOnUse" y2="491.400405" id="6a359d391d"><stop stop-opacity="1" stop-color="rgb(78.799438%, 69.398499%, 57.998657%)" offset="0"/><stop stop-opacity="1" stop-color="rgb(78.799438%, 69.398499%, 57.998657%)" offset="0.125"/><stop stop-opacity="1" stop-color="rgb(78.799438%, 69.398499%, 57.998657%)" offset="0.15625"/><stop stop-opacity="1" stop-color="rgb(78.652954%, 69.256592%, 57.824707%)" offset="0.171875"/><stop stop-opacity="1" stop-color="rgb(78.349304%, 68.960571%, 57.463074%)" offset="0.1875"/><stop stop-opacity="1" stop-color="rgb(78.034973%, 68.65387%, 57.087708%)" offset="0.203125"/><stop stop-opacity="1" stop-color="rgb(77.719116%, 68.345642%, 56.710815%)" offset="0.21875"/><stop stop-opacity="1" stop-color="rgb(77.403259%, 68.03894%, 56.335449%)" offset="0.234375"/><stop stop-opacity="1" stop-color="rgb(77.088928%, 67.730713%, 55.960083%)" offset="0.25"/><stop stop-opacity="1" stop-color="rgb(76.773071%, 67.424011%, 55.583191%)" offset="0.265625"/><stop stop-opacity="1" stop-color="rgb(76.45874%, 67.11731%, 55.207825%)" offset="0.28125"/><stop stop-opacity="1" stop-color="rgb(76.142883%, 66.809082%, 54.832458%)" offset="0.296875"/><stop stop-opacity="1" stop-color="rgb(75.828552%, 66.50238%, 54.457092%)" offset="0.3125"/><stop stop-opacity="1" stop-color="rgb(75.512695%, 66.194153%, 54.0802%)" offset="0.327999"/><stop stop-opacity="1" stop-color="rgb(75.35553%, 66.041565%, 53.892517%)" offset="0.328125"/><stop stop-opacity="1" stop-color="rgb(75.198364%, 65.887451%, 53.704834%)" offset="0.34375"/><stop stop-opacity="1" stop-color="rgb(74.882507%, 65.579224%, 53.329468%)" offset="0.359375"/><stop stop-opacity="1" stop-color="rgb(74.568176%, 65.272522%, 52.952576%)" offset="0.375"/><stop stop-opacity="1" stop-color="rgb(74.252319%, 64.96582%, 52.577209%)" offset="0.390625"/><stop stop-opacity="1" stop-color="rgb(73.936462%, 64.657593%, 52.201843%)" offset="0.40625"/><stop stop-opacity="1" stop-color="rgb(73.622131%, 64.350891%, 51.824951%)" offset="0.421875"/><stop stop-opacity="1" stop-color="rgb(73.306274%, 64.042664%, 51.449585%)" offset="0.4375"/><stop stop-opacity="1" stop-color="rgb(72.991943%, 63.735962%, 51.074219%)" offset="0.453125"/><stop stop-opacity="1" stop-color="rgb(72.676086%, 63.42926%, 50.697327%)" offset="0.46875"/><stop stop-opacity="1" stop-color="rgb(72.361755%, 63.121033%, 50.32196%)" offset="0.484375"/><stop stop-opacity="1" stop-color="rgb(72.045898%, 62.814331%, 49.946594%)" offset="0.5"/><stop stop-opacity="1" stop-color="rgb(71.731567%, 62.506104%, 49.569702%)" offset="0.515625"/><stop stop-opacity="1" stop-color="rgb(71.41571%, 62.199402%, 49.194336%)" offset="0.53125"/><stop stop-opacity="1" stop-color="rgb(71.101379%, 61.8927%, 48.81897%)" offset="0.546875"/><stop stop-opacity="1" stop-color="rgb(70.785522%, 61.584473%, 48.443604%)" offset="0.5625"/><stop stop-opacity="1" stop-color="rgb(70.471191%, 61.277771%, 48.066711%)" offset="0.578125"/><stop stop-opacity="1" stop-color="rgb(70.155334%, 60.969543%, 47.691345%)" offset="0.59375"/><stop stop-opacity="1" stop-color="rgb(69.839478%, 60.662842%, 47.315979%)" offset="0.609375"/><stop stop-opacity="1" stop-color="rgb(69.525146%, 60.354614%, 46.939087%)" offset="0.625"/><stop stop-opacity="1" stop-color="rgb(69.20929%, 60.047913%, 46.563721%)" offset="0.640625"/><stop stop-opacity="1" stop-color="rgb(68.894958%, 59.741211%, 46.188354%)" offset="0.65625"/><stop stop-opacity="1" stop-color="rgb(68.579102%, 59.432983%, 45.811462%)" offset="0.671875"/><stop stop-opacity="1" stop-color="rgb(68.264771%, 59.126282%, 45.436096%)" offset="0.672001"/><stop stop-opacity="1" stop-color="rgb(68.107605%, 58.972168%, 45.248413%)" offset="0.6875"/><stop stop-opacity="1" stop-color="rgb(67.948914%, 58.818054%, 45.06073%)" offset="0.703125"/><stop stop-opacity="1" stop-color="rgb(67.634583%, 58.511353%, 44.683838%)" offset="0.71875"/><stop stop-opacity="1" stop-color="rgb(67.318726%, 58.204651%, 44.308472%)" offset="0.734375"/><stop stop-opacity="1" stop-color="rgb(67.004395%, 57.896423%, 43.933105%)" offset="0.75"/><stop stop-opacity="1" stop-color="rgb(66.688538%, 57.589722%, 43.556213%)" offset="0.765625"/><stop stop-opacity="1" stop-color="rgb(66.372681%, 57.281494%, 43.180847%)" offset="0.78125"/><stop stop-opacity="1" stop-color="rgb(66.05835%, 56.974792%, 42.805481%)" offset="0.796875"/><stop stop-opacity="1" stop-color="rgb(65.742493%, 56.668091%, 42.430115%)" offset="0.8125"/><stop stop-opacity="1" stop-color="rgb(65.428162%, 56.359863%, 42.053223%)" offset="0.828125"/><stop stop-opacity="1" stop-color="rgb(65.112305%, 56.053162%, 41.677856%)" offset="0.84375"/><stop stop-opacity="1" stop-color="rgb(64.797974%, 55.744934%, 41.30249%)" offset="0.859375"/><stop stop-opacity="1" stop-color="rgb(64.482117%, 55.438232%, 40.925598%)" offset="0.875"/><stop stop-opacity="1" stop-color="rgb(64.167786%, 55.130005%, 40.550232%)" offset="0.890625"/><stop stop-opacity="1" stop-color="rgb(63.851929%, 54.823303%, 40.174866%)" offset="0.90625"/><stop stop-opacity="1" stop-color="rgb(63.537598%, 54.516602%, 39.797974%)" offset="0.921875"/><stop stop-opacity="1" stop-color="rgb(63.221741%, 54.208374%, 39.422607%)" offset="0.9375"/><stop stop-opacity="1" stop-color="rgb(62.905884%, 53.901672%, 39.047241%)" offset="0.953125"/><stop stop-opacity="1" stop-color="rgb(62.724304%, 53.723145%, 38.829041%)" offset="0.96875"/><stop stop-opacity="1" stop-color="rgb(62.69989%, 53.69873%, 38.798523%)" offset="1"/></linearGradient><clipPath id="5bafd28638"><path d="M 485 71.238281 L 508 71.238281 L 508 175.144531 L 485 175.144531 Z M 485 71.238281 " clip-rule="nonzero"/></clipPath><clipPath id="2127478dbd"><path d="M 485 71.238281 L 531 71.238281 L 531 147 L 485 147 Z M 485 71.238281 " clip-rule="nonzero"/></clipPath><clipPath id="de3f452fe2"><path d="M 485 71.238281 L 538.488281 71.238281 L 538.488281 116 L 485 116 Z M 485 71.238281 " clip-rule="nonzero"/></clipPath></defs><g clip-path="url(#49faca2d89)"><g clip-path="url(#688d50a7e3)"><path fill="url(#6a359d391d)" d="M 457.59375 11.851562 L 457.59375 106.097656 L 557.472656 106.097656 L 557.472656 11.851562 Z M 457.59375 11.851562 " fill-rule="nonzero"/></g></g><g clip-path="url(#5bafd28638)"><path fill="#a08963" d="M 507.652344 175.144531 C 480.015625 145.9375 516.324219 108.871094 485.59375 71.246094 C 506.433594 98.578125 469.367188 135.695312 507.652344 175.144531 " fill-opacity="1" fill-rule="evenodd"/></g><g clip-path="url(#2127478dbd)"><path fill="#a08963" d="M 530.773438 146.191406 C 501.414062 130.929688 519.667969 92.238281 485.59375 71.246094 C 509.171875 86.863281 490.359375 125.808594 530.773438 146.191406 " fill-opacity="1" fill-rule="evenodd"/></g><g clip-path="url(#de3f452fe2)"><path fill="#c9b194" d="M 538.480469 115.3125 C 512.722656 111.507812 516.324219 78.042969 485.59375 71.246094 C 507.144531 76.773438 503.140625 110.542969 538.480469 115.3125 " fill-opacity="1" fill-rule="evenodd"/></g><g fill="#a08963" fill-opacity="1"><g transform="translate(10.982439, 105.76152)"><g><path d="M 3.765625 0 L 3.765625 -0.953125 C 4.898438 -1.296875 5.675781 -2.035156 6.09375 -3.171875 C 6.507812 -4.304688 6.71875 -6.375 6.71875 -9.375 L 6.71875 -42.28125 C 6.71875 -45.332031 6.507812 -47.410156 6.09375 -48.515625 C 5.675781 -49.628906 4.898438 -50.359375 3.765625 -50.703125 L 3.765625 -51.65625 L 21.03125 -51.65625 C 26.738281 -51.65625 30.832031 -50.78125 33.3125 -49.03125 C 35.800781 -47.289062 37.046875 -44.921875 37.046875 -41.921875 C 37.046875 -39.410156 36.160156 -37.117188 34.390625 -35.046875 C 32.617188 -32.984375 29.617188 -31.554688 25.390625 -30.765625 C 29.421875 -30.578125 32.710938 -29.84375 35.265625 -28.5625 C 37.828125 -27.28125 39.722656 -25.628906 40.953125 -23.609375 C 42.179688 -21.597656 42.796875 -19.382812 42.796875 -16.96875 C 42.847656 -14.90625 42.453125 -12.863281 41.609375 -10.84375 C 40.773438 -8.832031 39.425781 -7.015625 37.5625 -5.390625 C 35.695312 -3.765625 33.222656 -2.457031 30.140625 -1.46875 C 27.066406 -0.488281 23.289062 0 18.8125 0 Z M 12.765625 -7.53125 C 12.765625 -4.875 13.007812 -3.140625 13.5 -2.328125 C 14 -1.515625 15.035156 -1.109375 16.609375 -1.109375 L 19.484375 -1.109375 C 23.515625 -1.109375 26.734375 -1.707031 29.140625 -2.90625 C 31.554688 -4.113281 33.316406 -5.773438 34.421875 -7.890625 C 35.535156 -10.003906 36.09375 -12.414062 36.09375 -15.125 C 36.09375 -17.976562 35.550781 -20.5 34.46875 -22.6875 C 33.382812 -24.875 31.671875 -26.609375 29.328125 -27.890625 C 26.992188 -29.171875 23.984375 -29.8125 20.296875 -29.8125 L 12.765625 -29.8125 Z M 12.765625 -30.921875 L 19.625 -30.921875 C 23.269531 -30.921875 25.960938 -31.851562 27.703125 -33.71875 C 29.453125 -35.59375 30.328125 -37.882812 30.328125 -40.59375 C 30.328125 -43.632812 29.28125 -46.050781 27.1875 -47.84375 C 25.101562 -49.644531 22.164062 -50.546875 18.375 -50.546875 L 12.765625 -50.546875 Z M 12.765625 -30.921875 "/></g></g></g><g fill="#a08963" fill-opacity="1"><g transform="translate(56.145187, 105.76152)"><g><path d="M 2.796875 0 L 2.796875 -0.953125 C 3.929688 -1.296875 4.707031 -2.035156 5.125 -3.171875 C 5.539062 -4.304688 5.75 -6.375 5.75 -9.375 L 5.75 -48.484375 C 5.75 -50.203125 5.640625 -51.492188 5.421875 -52.359375 C 5.203125 -53.222656 4.882812 -53.847656 4.46875 -54.234375 C 4.050781 -54.628906 3.492188 -54.976562 2.796875 -55.28125 L 2.796875 -56.078125 L 10.84375 -59.625 L 11.515625 -59.109375 L 11.515625 -9.375 C 11.515625 -6.375 11.722656 -4.304688 12.140625 -3.171875 C 12.554688 -2.035156 13.332031 -1.296875 14.46875 -0.953125 L 14.46875 0 Z M 2.796875 0 "/></g></g></g><g fill="#a08963" fill-opacity="1"><g transform="translate(73.634684, 105.76152)"><g><path d="M 2.359375 0 L 2.359375 -0.953125 C 3.492188 -1.296875 4.269531 -2.035156 4.6875 -3.171875 C 5.101562 -4.304688 5.3125 -6.375 5.3125 -9.375 L 5.3125 -26.34375 C 5.3125 -28.0625 5.210938 -29.351562 5.015625 -30.21875 C 4.816406 -31.082031 4.492188 -31.707031 4.046875 -32.09375 C 3.609375 -32.488281 3.046875 -32.835938 2.359375 -33.140625 L 2.359375 -33.953125 L 10.484375 -37.484375 L 11.0625 -36.96875 L 11.0625 -9.375 C 11.0625 -6.375 11.28125 -4.304688 11.71875 -3.171875 C 12.164062 -2.035156 12.929688 -1.296875 14.015625 -0.953125 L 14.015625 0 Z M 3.6875 -46.046875 C 3.6875 -47.234375 4.078125 -48.21875 4.859375 -49 C 5.648438 -49.789062 6.613281 -50.1875 7.75 -50.1875 C 8.925781 -50.1875 9.894531 -49.789062 10.65625 -49 C 11.425781 -48.21875 11.8125 -47.234375 11.8125 -46.046875 C 11.8125 -44.960938 11.414062 -44.015625 10.625 -43.203125 C 9.84375 -42.390625 8.882812 -41.984375 7.75 -41.984375 C 6.613281 -41.984375 5.648438 -42.390625 4.859375 -43.203125 C 4.078125 -44.015625 3.6875 -44.960938 3.6875 -46.046875 Z M 3.6875 -46.046875 "/></g></g></g><g fill="#a08963" fill-opacity="1"><g transform="translate(90.238641, 105.76152)"><g><path d="M 16.671875 0.671875 C 13.722656 0.671875 11.054688 0.300781 8.671875 -0.4375 C 6.285156 -1.175781 4.476562 -1.941406 3.25 -2.734375 L 2.578125 -11.65625 L 3.25 -11.8125 C 4.820312 -8.3125 6.882812 -5.566406 9.4375 -3.578125 C 12 -1.585938 14.953125 -0.566406 18.296875 -0.515625 C 20.609375 -0.515625 22.515625 -1.140625 24.015625 -2.390625 C 25.515625 -3.648438 26.265625 -5.3125 26.265625 -7.375 C 26.265625 -9.144531 25.757812 -10.570312 24.75 -11.65625 C 23.75 -12.738281 22.421875 -13.625 20.765625 -14.3125 C 19.117188 -15 17.335938 -15.640625 15.421875 -16.234375 C 13.109375 -16.972656 11.039062 -17.75 9.21875 -18.5625 C 7.40625 -19.375 5.976562 -20.441406 4.9375 -21.765625 C 3.90625 -23.097656 3.390625 -24.867188 3.390625 -27.078125 C 3.390625 -29.984375 4.554688 -32.429688 6.890625 -34.421875 C 9.234375 -36.421875 12.546875 -37.421875 16.828125 -37.421875 C 19.234375 -37.421875 21.457031 -37.207031 23.5 -36.78125 C 25.539062 -36.363281 27.128906 -35.910156 28.265625 -35.421875 L 28.5625 -27.890625 L 27.828125 -27.75 C 26.640625 -30.40625 24.9375 -32.519531 22.71875 -34.09375 C 20.507812 -35.664062 18.101562 -36.453125 15.5 -36.453125 C 12.988281 -36.453125 10.984375 -35.882812 9.484375 -34.75 C 7.984375 -33.625 7.234375 -32.125 7.234375 -30.25 C 7.234375 -28.726562 7.710938 -27.453125 8.671875 -26.421875 C 9.628906 -25.390625 10.90625 -24.515625 12.5 -23.796875 C 14.101562 -23.085938 15.863281 -22.410156 17.78125 -21.765625 C 19.207031 -21.328125 20.644531 -20.847656 22.09375 -20.328125 C 23.550781 -19.816406 24.878906 -19.175781 26.078125 -18.40625 C 27.285156 -17.644531 28.269531 -16.660156 29.03125 -15.453125 C 29.800781 -14.253906 30.1875 -12.71875 30.1875 -10.84375 C 30.1875 -8.78125 29.679688 -6.875 28.671875 -5.125 C 27.660156 -3.382812 26.144531 -1.992188 24.125 -0.953125 C 22.113281 0.078125 19.628906 0.617188 16.671875 0.671875 Z M 16.671875 0.671875 "/></g></g></g><g fill="#a08963" fill-opacity="1"><g transform="translate(123.077563, 105.76152)"><g><path d="M 16.671875 0.671875 C 13.722656 0.671875 11.054688 0.300781 8.671875 -0.4375 C 6.285156 -1.175781 4.476562 -1.941406 3.25 -2.734375 L 2.578125 -11.65625 L 3.25 -11.8125 C 4.820312 -8.3125 6.882812 -5.566406 9.4375 -3.578125 C 12 -1.585938 14.953125 -0.566406 18.296875 -0.515625 C 20.609375 -0.515625 22.515625 -1.140625 24.015625 -2.390625 C 25.515625 -3.648438 26.265625 -5.3125 26.265625 -7.375 C 26.265625 -9.144531 25.757812 -10.570312 24.75 -11.65625 C 23.75 -12.738281 22.421875 -13.625 20.765625 -14.3125 C 19.117188 -15 17.335938 -15.640625 15.421875 -16.234375 C 13.109375 -16.972656 11.039062 -17.75 9.21875 -18.5625 C 7.40625 -19.375 5.976562 -20.441406 4.9375 -21.765625 C 3.90625 -23.097656 3.390625 -24.867188 3.390625 -27.078125 C 3.390625 -29.984375 4.554688 -32.429688 6.890625 -34.421875 C 9.234375 -36.421875 12.546875 -37.421875 16.828125 -37.421875 C 19.234375 -37.421875 21.457031 -37.207031 23.5 -36.78125 C 25.539062 -36.363281 27.128906 -35.910156 28.265625 -35.421875 L 28.5625 -27.890625 L 27.828125 -27.75 C 26.640625 -30.40625 24.9375 -32.519531 22.71875 -34.09375 C 20.507812 -35.664062 18.101562 -36.453125 15.5 -36.453125 C 12.988281 -36.453125 10.984375 -35.882812 9.484375 -34.75 C 7.984375 -33.625 7.234375 -32.125 7.234375 -30.25 C 7.234375 -28.726562 7.710938 -27.453125 8.671875 -26.421875 C 9.628906 -25.390625 10.90625 -24.515625 12.5 -23.796875 C 14.101562 -23.085938 15.863281 -22.410156 17.78125 -21.765625 C 19.207031 -21.328125 20.644531 -20.847656 22.09375 -20.328125 C 23.550781 -19.816406 24.878906 -19.175781 26.078125 -18.40625 C 27.285156 -17.644531 28.269531 -16.660156 29.03125 -15.453125 C 29.800781 -14.253906 30.1875 -12.71875 30.1875 -10.84375 C 30.1875 -8.78125 29.679688 -6.875 28.671875 -5.125 C 27.660156 -3.382812 26.144531 -1.992188 24.125 -0.953125 C 22.113281 0.078125 19.628906 0.617188 16.671875 0.671875 Z M 16.671875 0.671875 "/></g></g></g><g fill="#a08963" fill-opacity="1"><g transform="translate(155.916485, 105.76152)"><g><path d="M 2.875 0 L 2.875 -0.953125 C 4.007812 -1.296875 4.785156 -2.035156 5.203125 -3.171875 C 5.617188 -4.304688 5.828125 -6.375 5.828125 -9.375 L 5.828125 -35.34375 L 1.546875 -35.34375 L 1.921875 -36.375 L 5.828125 -36.375 C 5.972656 -39.132812 6.671875 -41.78125 7.921875 -44.3125 C 9.179688 -46.84375 10.84375 -49.101562 12.90625 -51.09375 C 14.976562 -53.09375 17.351562 -54.671875 20.03125 -55.828125 C 22.71875 -56.984375 25.5625 -57.5625 28.5625 -57.5625 C 31.90625 -57.5625 33.578125 -56.921875 33.578125 -55.640625 C 33.578125 -55.203125 33.378906 -54.648438 32.984375 -53.984375 C 32.585938 -53.316406 32.03125 -52.710938 31.3125 -52.171875 C 30.601562 -51.628906 29.734375 -51.359375 28.703125 -51.359375 C 27.035156 -51.359375 25.363281 -51.59375 23.6875 -52.0625 C 22.019531 -52.53125 20.125 -53.132812 18 -53.875 C 17.164062 -53.425781 16.242188 -52.769531 15.234375 -51.90625 C 14.222656 -51.050781 13.363281 -49.757812 12.65625 -48.03125 C 11.945312 -46.3125 11.59375 -43.90625 11.59375 -40.8125 L 11.59375 -36.375 L 21.25 -36.375 L 20.8125 -35.34375 L 11.59375 -35.34375 L 11.59375 -9.375 C 11.59375 -6.375 11.800781 -4.304688 12.21875 -3.171875 C 12.632812 -2.035156 13.40625 -1.296875 14.53125 -0.953125 L 14.53125 0 Z M 2.875 0 "/></g></g></g><g fill="#a08963" fill-opacity="1"><g transform="translate(178.350274, 105.76152)"><g><path d="M 16.09375 0.734375 C 12.195312 0.734375 9.335938 -0.441406 7.515625 -2.796875 C 5.703125 -5.160156 4.796875 -8.457031 4.796875 -12.6875 L 4.796875 -26.34375 C 4.796875 -28.0625 4.679688 -29.351562 4.453125 -30.21875 C 4.234375 -31.082031 3.914062 -31.707031 3.5 -32.09375 C 3.082031 -32.488281 2.53125 -32.835938 1.84375 -33.140625 L 1.84375 -33.953125 L 9.890625 -37.484375 L 10.546875 -36.96875 L 10.546875 -14.015625 C 10.546875 -9.835938 11.1875 -6.765625 12.46875 -4.796875 C 13.75 -2.828125 15.863281 -1.84375 18.8125 -1.84375 C 20.976562 -1.84375 23.046875 -2.445312 25.015625 -3.65625 C 26.984375 -4.863281 28.804688 -6.351562 30.484375 -8.125 L 30.484375 -26.34375 C 30.484375 -28.0625 30.367188 -29.351562 30.140625 -30.21875 C 29.921875 -31.082031 29.601562 -31.707031 29.1875 -32.09375 C 28.769531 -32.488281 28.21875 -32.835938 27.53125 -33.140625 L 27.53125 -33.953125 L 35.5625 -37.484375 L 36.234375 -36.96875 L 36.234375 -9.375 C 36.234375 -6.375 36.441406 -4.304688 36.859375 -3.171875 C 37.273438 -2.035156 38.050781 -1.296875 39.1875 -0.953125 L 39.1875 0 L 32.90625 0 C 32.125 0 31.523438 -0.21875 31.109375 -0.65625 C 30.691406 -1.101562 30.484375 -1.867188 30.484375 -2.953125 L 30.484375 -6.71875 C 28.609375 -4.75 26.425781 -3.015625 23.9375 -1.515625 C 21.457031 -0.015625 18.84375 0.734375 16.09375 0.734375 Z M 16.09375 0.734375 "/></g></g></g><g fill="#a08963" fill-opacity="1"><g transform="translate(220.11844, 105.76152)"><g><path d="M 2.796875 0 L 2.796875 -0.953125 C 3.929688 -1.296875 4.707031 -2.035156 5.125 -3.171875 C 5.539062 -4.304688 5.75 -6.375 5.75 -9.375 L 5.75 -48.484375 C 5.75 -50.203125 5.640625 -51.492188 5.421875 -52.359375 C 5.203125 -53.222656 4.882812 -53.847656 4.46875 -54.234375 C 4.050781 -54.628906 3.492188 -54.976562 2.796875 -55.28125 L 2.796875 -56.078125 L 10.84375 -59.625 L 11.515625 -59.109375 L 11.515625 -9.375 C 11.515625 -6.375 11.722656 -4.304688 12.140625 -3.171875 C 12.554688 -2.035156 13.332031 -1.296875 14.46875 -0.953125 L 14.46875 0 Z M 2.796875 0 "/></g></g></g><g fill="#a08963" fill-opacity="1"><g transform="translate(237.607948, 105.76152)"><g/></g></g><g fill="#a08963" fill-opacity="1"><g transform="translate(253.104975, 105.76152)"><g><path d="M 3.765625 0 L 3.765625 -0.953125 C 4.898438 -1.296875 5.675781 -2.035156 6.09375 -3.171875 C 6.507812 -4.304688 6.71875 -6.375 6.71875 -9.375 L 6.71875 -42.28125 C 6.71875 -45.332031 6.507812 -47.410156 6.09375 -48.515625 C 5.675781 -49.628906 4.898438 -50.359375 3.765625 -50.703125 L 3.765625 -51.65625 L 21.03125 -51.65625 C 26.738281 -51.65625 30.832031 -50.78125 33.3125 -49.03125 C 35.800781 -47.289062 37.046875 -44.921875 37.046875 -41.921875 C 37.046875 -39.410156 36.160156 -37.117188 34.390625 -35.046875 C 32.617188 -32.984375 29.617188 -31.554688 25.390625 -30.765625 C 29.421875 -30.578125 32.710938 -29.84375 35.265625 -28.5625 C 37.828125 -27.28125 39.722656 -25.628906 40.953125 -23.609375 C 42.179688 -21.597656 42.796875 -19.382812 42.796875 -16.96875 C 42.847656 -14.90625 42.453125 -12.863281 41.609375 -10.84375 C 40.773438 -8.832031 39.425781 -7.015625 37.5625 -5.390625 C 35.695312 -3.765625 33.222656 -2.457031 30.140625 -1.46875 C 27.066406 -0.488281 23.289062 0 18.8125 0 Z M 12.765625 -7.53125 C 12.765625 -4.875 13.007812 -3.140625 13.5 -2.328125 C 14 -1.515625 15.035156 -1.109375 16.609375 -1.109375 L 19.484375 -1.109375 C 23.515625 -1.109375 26.734375 -1.707031 29.140625 -2.90625 C 31.554688 -4.113281 33.316406 -5.773438 34.421875 -7.890625 C 35.535156 -10.003906 36.09375 -12.414062 36.09375 -15.125 C 36.09375 -17.976562 35.550781 -20.5 34.46875 -22.6875 C 33.382812 -24.875 31.671875 -26.609375 29.328125 -27.890625 C 26.992188 -29.171875 23.984375 -29.8125 20.296875 -29.8125 L 12.765625 -29.8125 Z M 12.765625 -30.921875 L 19.625 -30.921875 C 23.269531 -30.921875 25.960938 -31.851562 27.703125 -33.71875 C 29.453125 -35.59375 30.328125 -37.882812 30.328125 -40.59375 C 30.328125 -43.632812 29.28125 -46.050781 27.1875 -47.84375 C 25.101562 -49.644531 22.164062 -50.546875 18.375 -50.546875 L 12.765625 -50.546875 Z M 12.765625 -30.921875 "/></g></g></g><g fill="#a08963" fill-opacity="1"><g transform="translate(298.267733, 105.76152)"><g><path d="M 20.140625 0.734375 C 18.128906 0.734375 16.085938 0.367188 14.015625 -0.359375 C 11.953125 -1.097656 10.054688 -2.21875 8.328125 -3.71875 C 6.609375 -5.226562 5.234375 -7.113281 4.203125 -9.375 C 3.171875 -11.632812 2.65625 -14.289062 2.65625 -17.34375 C 2.65625 -21.375 3.550781 -24.890625 5.34375 -27.890625 C 7.144531 -30.890625 9.519531 -33.226562 12.46875 -34.90625 C 15.425781 -36.582031 18.625 -37.421875 22.0625 -37.421875 C 25.164062 -37.421875 27.8125 -36.816406 30 -35.609375 C 32.1875 -34.398438 33.882812 -32.8125 35.09375 -30.84375 C 36.300781 -28.875 36.925781 -26.710938 36.96875 -24.359375 L 8.125 -24.359375 C 7.96875 -23.273438 7.890625 -22.140625 7.890625 -20.953125 C 7.890625 -17.609375 8.539062 -14.644531 9.84375 -12.0625 C 11.15625 -9.476562 13.003906 -7.472656 15.390625 -6.046875 C 17.773438 -4.617188 20.566406 -3.90625 23.765625 -3.90625 C 26.617188 -3.90625 29.101562 -4.492188 31.21875 -5.671875 C 33.332031 -6.859375 35.226562 -8.410156 36.90625 -10.328125 L 37.5625 -9.671875 C 36.332031 -7.941406 34.851562 -6.273438 33.125 -4.671875 C 31.40625 -3.078125 29.472656 -1.773438 27.328125 -0.765625 C 25.191406 0.234375 22.796875 0.734375 20.140625 0.734375 Z M 8.34375 -25.3125 L 31.0625 -25.3125 C 30.820312 -26.988281 30.222656 -28.648438 29.265625 -30.296875 C 28.304688 -31.941406 27.023438 -33.316406 25.421875 -34.421875 C 23.828125 -35.535156 21.894531 -36.09375 19.625 -36.09375 C 16.476562 -36.132812 13.957031 -35.125 12.0625 -33.0625 C 10.164062 -31 8.925781 -28.414062 8.34375 -25.3125 Z M 8.34375 -25.3125 "/></g></g></g><g fill="#a08963" fill-opacity="1"><g transform="translate(337.895828, 105.76152)"><g><path d="M 30.921875 0 C 29.441406 0 28.703125 -0.738281 28.703125 -2.21875 L 28.703125 -15.5 C 27.960938 -12.5 26.804688 -9.765625 25.234375 -7.296875 C 23.660156 -4.835938 21.828125 -2.882812 19.734375 -1.4375 C 17.648438 0.0078125 15.378906 0.734375 12.921875 0.734375 C 11.097656 0.734375 9.398438 0.367188 7.828125 -0.359375 C 6.253906 -1.097656 4.984375 -2.179688 4.015625 -3.609375 C 3.054688 -5.035156 2.578125 -6.804688 2.578125 -8.921875 C 2.578125 -11.484375 3.335938 -13.578125 4.859375 -15.203125 C 6.390625 -16.828125 8.421875 -18.15625 10.953125 -19.1875 C 13.492188 -20.21875 16.210938 -21.128906 19.109375 -21.921875 L 28.703125 -24.5 C 28.503906 -28.09375 27.519531 -30.738281 25.75 -32.4375 C 23.976562 -34.132812 21.519531 -34.984375 18.375 -34.984375 C 16.15625 -34.984375 14 -34.453125 11.90625 -33.390625 C 9.820312 -32.335938 7.847656 -30.675781 5.984375 -28.40625 L 5.3125 -29 C 7.425781 -31.601562 9.820312 -33.65625 12.5 -35.15625 C 15.1875 -36.664062 18.128906 -37.421875 21.328125 -37.421875 C 25.804688 -37.421875 29.101562 -36.25 31.21875 -33.90625 C 33.332031 -31.570312 34.390625 -28.3125 34.390625 -24.125 L 34.390625 -9.375 C 34.390625 -6.375 34.597656 -4.304688 35.015625 -3.171875 C 35.429688 -2.035156 36.207031 -1.296875 37.34375 -0.953125 L 37.34375 0 Z M 8.125 -11 C 8.125 -8.582031 8.847656 -6.742188 10.296875 -5.484375 C 11.742188 -4.234375 13.523438 -3.609375 15.640625 -3.609375 C 17.609375 -3.609375 19.390625 -4.160156 20.984375 -5.265625 C 22.585938 -6.378906 23.953125 -7.820312 25.078125 -9.59375 C 26.210938 -11.363281 27.097656 -13.28125 27.734375 -15.34375 C 28.378906 -17.414062 28.703125 -19.410156 28.703125 -21.328125 L 28.703125 -23.546875 L 19.40625 -21.03125 C 17.582031 -20.539062 15.796875 -19.890625 14.046875 -19.078125 C 12.304688 -18.265625 10.882812 -17.21875 9.78125 -15.9375 C 8.675781 -14.65625 8.125 -13.007812 8.125 -11 Z M 8.125 -11 "/></g></g></g><g fill="#a08963" fill-opacity="1"><g transform="translate(377.007363, 105.76152)"><g><path d="M 16.09375 0.734375 C 12.195312 0.734375 9.335938 -0.441406 7.515625 -2.796875 C 5.703125 -5.160156 4.796875 -8.457031 4.796875 -12.6875 L 4.796875 -26.34375 C 4.796875 -28.0625 4.679688 -29.351562 4.453125 -30.21875 C 4.234375 -31.082031 3.914062 -31.707031 3.5 -32.09375 C 3.082031 -32.488281 2.53125 -32.835938 1.84375 -33.140625 L 1.84375 -33.953125 L 9.890625 -37.484375 L 10.546875 -36.96875 L 10.546875 -14.015625 C 10.546875 -9.835938 11.1875 -6.765625 12.46875 -4.796875 C 13.75 -2.828125 15.863281 -1.84375 18.8125 -1.84375 C 20.976562 -1.84375 23.046875 -2.445312 25.015625 -3.65625 C 26.984375 -4.863281 28.804688 -6.351562 30.484375 -8.125 L 30.484375 -26.34375 C 30.484375 -28.0625 30.367188 -29.351562 30.140625 -30.21875 C 29.921875 -31.082031 29.601562 -31.707031 29.1875 -32.09375 C 28.769531 -32.488281 28.21875 -32.835938 27.53125 -33.140625 L 27.53125 -33.953125 L 35.5625 -37.484375 L 36.234375 -36.96875 L 36.234375 -9.375 C 36.234375 -6.375 36.441406 -4.304688 36.859375 -3.171875 C 37.273438 -2.035156 38.050781 -1.296875 39.1875 -0.953125 L 39.1875 0 L 32.90625 0 C 32.125 0 31.523438 -0.21875 31.109375 -0.65625 C 30.691406 -1.101562 30.484375 -1.867188 30.484375 -2.953125 L 30.484375 -6.71875 C 28.609375 -4.75 26.425781 -3.015625 23.9375 -1.515625 C 21.457031 -0.015625 18.84375 0.734375 16.09375 0.734375 Z M 16.09375 0.734375 "/></g></g></g><g fill="#a08963" fill-opacity="1"><g transform="translate(418.775518, 105.76152)"><g><path d="M 13.953125 0.734375 C 11.640625 0.734375 9.816406 -0.0625 8.484375 -1.65625 C 7.160156 -3.257812 6.5 -5.976562 6.5 -9.8125 L 6.5 -35.859375 L 1.765625 -35.859375 L 1.765625 -36.90625 L 11.21875 -45.96875 L 12.25 -45.96875 L 12.25 -36.90625 L 23.46875 -36.90625 L 23.09375 -35.859375 L 12.25 -35.859375 L 12.25 -9.8125 C 12.25 -7.300781 12.726562 -5.515625 13.6875 -4.453125 C 14.644531 -3.398438 15.910156 -2.875 17.484375 -2.875 C 18.523438 -2.875 19.660156 -3.15625 20.890625 -3.71875 C 22.117188 -4.289062 23.347656 -5.289062 24.578125 -6.71875 L 25.234375 -6.046875 C 23.660156 -4.234375 21.925781 -2.648438 20.03125 -1.296875 C 18.132812 0.0546875 16.109375 0.734375 13.953125 0.734375 Z M 13.953125 0.734375 "/></g></g></g><g fill="#a08963" fill-opacity="1"><g transform="translate(444.161129, 105.76152)"><g><path d="M 2.21875 14.25 C 0.789062 14.289062 -0.398438 14.101562 -1.359375 13.6875 C -2.316406 13.269531 -2.796875 12.765625 -2.796875 12.171875 C -2.796875 11.679688 -2.597656 11.128906 -2.203125 10.515625 C -1.816406 9.898438 -1.28125 9.347656 -0.59375 8.859375 C 0.09375 8.367188 0.878906 8.125 1.765625 8.125 C 2.753906 8.125 4.132812 8.332031 5.90625 8.75 C 7.675781 9.164062 9.394531 9.519531 11.0625 9.8125 C 12.34375 8.6875 13.550781 7.273438 14.6875 5.578125 C 15.820312 3.878906 16.851562 2.066406 17.78125 0.140625 L 5.6875 -28.265625 C 4.550781 -31.015625 3.515625 -32.894531 2.578125 -33.90625 C 1.648438 -34.914062 0.789062 -35.59375 0 -35.9375 L 0 -36.90625 L 11.140625 -36.90625 L 11.140625 -35.9375 C 10.054688 -35.59375 9.613281 -34.914062 9.8125 -33.90625 C 10.007812 -32.894531 10.695312 -31.015625 11.875 -28.265625 L 20.953125 -7.15625 L 30.03125 -28.265625 C 31.0625 -30.671875 31.53125 -32.488281 31.4375 -33.71875 C 31.34375 -34.945312 30.65625 -35.6875 29.375 -35.9375 L 29.375 -36.90625 L 37.5625 -36.90625 L 37.5625 -35.9375 C 36.53125 -35.59375 35.507812 -34.914062 34.5 -33.90625 C 33.488281 -32.894531 32.367188 -31.015625 31.140625 -28.265625 L 19.703125 -1.84375 C 18.128906 1.75 16.554688 4.625 14.984375 6.78125 C 13.410156 8.945312 11.875 10.554688 10.375 11.609375 C 8.875 12.671875 7.429688 13.375 6.046875 13.71875 C 4.671875 14.070312 3.394531 14.25 2.21875 14.25 Z M 2.21875 14.25 "/></g></g></g><g fill="#a08963" fill-opacity="1"><g transform="translate(19.19881, 137.813395)"><g><path d="M 19.609375 -12.875 C 19.515625 -12.613281 19.410156 -12.296875 19.296875 -11.921875 C 19.179688 -11.546875 19.050781 -11.066406 18.90625 -10.484375 L 18.5625 -10.484375 C 18.625 -10.785156 18.671875 -11.023438 18.703125 -11.203125 C 18.742188 -11.390625 18.734375 -11.535156 18.671875 -11.640625 C 18.617188 -11.753906 18.507812 -11.828125 18.34375 -11.859375 C 18.1875 -11.898438 17.945312 -11.921875 17.625 -11.921875 C 17.59375 -11.921875 17.550781 -11.921875 17.5 -11.921875 C 17.457031 -11.921875 17.359375 -11.914062 17.203125 -11.90625 C 17.046875 -11.90625 16.8125 -11.90625 16.5 -11.90625 C 16.1875 -11.90625 15.742188 -11.90625 15.171875 -11.90625 C 15.078125 -11.550781 14.988281 -11.210938 14.90625 -10.890625 C 14.832031 -10.566406 14.75 -10.253906 14.65625 -9.953125 C 14.570312 -9.648438 14.46875 -9.351562 14.34375 -9.0625 C 14.226562 -8.769531 14.082031 -8.472656 13.90625 -8.171875 C 13.71875 -7.816406 13.476562 -7.492188 13.1875 -7.203125 C 12.90625 -6.921875 12.585938 -6.664062 12.234375 -6.4375 C 11.878906 -6.207031 11.503906 -6 11.109375 -5.8125 C 10.710938 -5.632812 10.304688 -5.476562 9.890625 -5.34375 C 10.179688 -5.25 10.488281 -5.125 10.8125 -4.96875 C 11.132812 -4.8125 11.457031 -4.644531 11.78125 -4.46875 C 12.113281 -4.289062 12.4375 -4.101562 12.75 -3.90625 C 13.0625 -3.71875 13.335938 -3.539062 13.578125 -3.375 C 13.828125 -3.21875 14.035156 -3.082031 14.203125 -2.96875 C 14.378906 -2.851562 14.492188 -2.785156 14.546875 -2.765625 C 14.898438 -3.222656 15.148438 -3.640625 15.296875 -4.015625 C 15.441406 -4.398438 15.515625 -4.832031 15.515625 -5.3125 C 15.515625 -5.96875 15.378906 -6.523438 15.109375 -6.984375 C 14.835938 -7.441406 14.425781 -7.78125 13.875 -8 L 17.234375 -8 L 16.96875 -6.984375 L 15.40625 -6.984375 C 15.957031 -6.472656 16.234375 -5.816406 16.234375 -5.015625 C 16.234375 -4.179688 15.878906 -3.316406 15.171875 -2.421875 C 15.640625 -2.148438 16.035156 -1.925781 16.359375 -1.75 C 16.679688 -1.570312 16.96875 -1.4375 17.21875 -1.34375 C 17.46875 -1.25 17.691406 -1.179688 17.890625 -1.140625 C 18.085938 -1.097656 18.296875 -1.078125 18.515625 -1.078125 C 18.921875 -1.078125 19.300781 -1.15625 19.65625 -1.3125 C 20.019531 -1.46875 20.332031 -1.6875 20.59375 -1.96875 C 20.863281 -2.25 21.085938 -2.585938 21.265625 -2.984375 C 21.441406 -3.378906 21.546875 -3.816406 21.578125 -4.296875 C 21.828125 -4.109375 21.953125 -3.84375 21.953125 -3.5 C 21.953125 -3.207031 21.863281 -2.921875 21.6875 -2.640625 C 21.507812 -2.359375 21.28125 -2.085938 21 -1.828125 C 20.71875 -1.566406 20.414062 -1.320312 20.09375 -1.09375 C 19.769531 -0.875 19.460938 -0.679688 19.171875 -0.515625 C 18.890625 -0.347656 18.644531 -0.21875 18.4375 -0.125 C 18.226562 -0.03125 18.109375 0.015625 18.078125 0.015625 C 17.941406 0.015625 17.738281 -0.0195312 17.46875 -0.09375 C 17.207031 -0.164062 16.898438 -0.269531 16.546875 -0.40625 C 16.203125 -0.539062 15.828125 -0.707031 15.421875 -0.90625 C 15.015625 -1.113281 14.609375 -1.347656 14.203125 -1.609375 C 13.785156 -1.304688 13.3125 -1.050781 12.78125 -0.84375 C 12.257812 -0.632812 11.722656 -0.46875 11.171875 -0.34375 C 10.628906 -0.21875 10.097656 -0.128906 9.578125 -0.078125 C 9.066406 -0.0234375 8.613281 0 8.21875 0 C 7.414062 0 6.601562 -0.078125 5.78125 -0.234375 C 4.96875 -0.398438 4.222656 -0.675781 3.546875 -1.0625 C 2.878906 -1.457031 2.332031 -1.976562 1.90625 -2.625 C 1.488281 -3.269531 1.28125 -4.078125 1.28125 -5.046875 C 1.28125 -6.148438 1.570312 -7.15625 2.15625 -8.0625 C 2.738281 -8.976562 3.65625 -9.851562 4.90625 -10.6875 C 5.476562 -11.050781 6.039062 -11.367188 6.59375 -11.640625 C 7.144531 -11.910156 7.707031 -12.128906 8.28125 -12.296875 C 8.863281 -12.472656 9.460938 -12.597656 10.078125 -12.671875 C 10.703125 -12.753906 11.375 -12.796875 12.09375 -12.796875 C 12.8125 -12.796875 13.523438 -12.796875 14.234375 -12.796875 C 14.953125 -12.796875 15.632812 -12.796875 16.28125 -12.796875 C 16.9375 -12.804688 17.546875 -12.816406 18.109375 -12.828125 C 18.671875 -12.847656 19.171875 -12.863281 19.609375 -12.875 Z M 14.171875 -11.90625 C 13.453125 -11.875 12.796875 -11.867188 12.203125 -11.890625 C 11.609375 -11.910156 11.03125 -11.910156 10.46875 -11.890625 C 9.914062 -11.867188 9.359375 -11.820312 8.796875 -11.75 C 8.234375 -11.675781 7.625 -11.53125 6.96875 -11.3125 C 6.1875 -11.050781 5.507812 -10.707031 4.9375 -10.28125 C 4.363281 -9.863281 3.882812 -9.394531 3.5 -8.875 C 3.113281 -8.351562 2.828125 -7.796875 2.640625 -7.203125 C 2.460938 -6.609375 2.375 -6.007812 2.375 -5.40625 C 2.375 -4.769531 2.488281 -4.148438 2.71875 -3.546875 C 2.945312 -2.953125 3.304688 -2.421875 3.796875 -1.953125 C 4.296875 -1.484375 4.925781 -1.101562 5.6875 -0.8125 C 6.457031 -0.53125 7.378906 -0.390625 8.453125 -0.390625 C 9.503906 -0.390625 10.441406 -0.507812 11.265625 -0.75 C 12.097656 -1 12.90625 -1.394531 13.6875 -1.9375 C 13.40625 -2.070312 13.023438 -2.300781 12.546875 -2.625 C 12.078125 -2.945312 11.53125 -3.273438 10.90625 -3.609375 C 10.28125 -3.953125 9.59375 -4.253906 8.84375 -4.515625 C 8.09375 -4.785156 7.316406 -4.921875 6.515625 -4.921875 C 6.328125 -4.921875 6.15625 -4.914062 6 -4.90625 C 5.84375 -4.894531 5.644531 -4.859375 5.40625 -4.796875 C 5.507812 -4.910156 5.59375 -5.003906 5.65625 -5.078125 C 5.71875 -5.160156 5.773438 -5.238281 5.828125 -5.3125 C 5.878906 -5.382812 5.925781 -5.457031 5.96875 -5.53125 C 6.007812 -5.613281 6.066406 -5.710938 6.140625 -5.828125 C 6.242188 -5.867188 6.328125 -5.890625 6.390625 -5.890625 C 6.460938 -5.898438 6.582031 -5.90625 6.75 -5.90625 C 6.882812 -5.90625 7.054688 -5.894531 7.265625 -5.875 C 7.484375 -5.863281 7.707031 -5.84375 7.9375 -5.8125 C 8.164062 -5.78125 8.378906 -5.753906 8.578125 -5.734375 C 8.785156 -5.710938 8.9375 -5.703125 9.03125 -5.703125 C 9.425781 -5.703125 9.867188 -5.773438 10.359375 -5.921875 C 10.847656 -6.066406 11.332031 -6.359375 11.8125 -6.796875 C 12.289062 -7.234375 12.738281 -7.859375 13.15625 -8.671875 C 13.570312 -9.484375 13.910156 -10.5625 14.171875 -11.90625 Z M 14.171875 -11.90625 "/></g></g></g><g fill="#a08963" fill-opacity="1"><g transform="translate(41.674807, 137.813395)"><g><path d="M 5.75 -7.8125 C 5.71875 -7.769531 5.660156 -7.6875 5.578125 -7.5625 C 5.503906 -7.4375 5.410156 -7.285156 5.296875 -7.109375 C 5.191406 -6.929688 5.070312 -6.738281 4.9375 -6.53125 C 4.800781 -6.320312 4.671875 -6.109375 4.546875 -5.890625 L 4.3125 -6.046875 C 4.414062 -6.273438 4.484375 -6.429688 4.515625 -6.515625 C 4.554688 -6.609375 4.578125 -6.691406 4.578125 -6.765625 C 4.578125 -7.003906 4.367188 -7.125 3.953125 -7.125 C 3.753906 -7.125 3.566406 -7.082031 3.390625 -7 C 3.222656 -6.925781 3.070312 -6.828125 2.9375 -6.703125 C 2.800781 -6.578125 2.691406 -6.429688 2.609375 -6.265625 C 2.535156 -6.097656 2.5 -5.925781 2.5 -5.75 C 2.5 -5.53125 2.539062 -5.320312 2.625 -5.125 C 2.71875 -4.925781 2.816406 -4.71875 2.921875 -4.5 C 3.035156 -4.28125 3.132812 -4.039062 3.21875 -3.78125 C 3.3125 -3.519531 3.359375 -3.226562 3.359375 -2.90625 C 3.359375 -2.519531 3.257812 -2.15625 3.0625 -1.8125 C 2.875 -1.476562 2.550781 -1.128906 2.09375 -0.765625 C 1.394531 -0.179688 0.753906 0.109375 0.171875 0.109375 C -0.171875 0.109375 -0.441406 0.03125 -0.640625 -0.125 C -0.835938 -0.28125 -0.9375 -0.488281 -0.9375 -0.75 C -0.9375 -0.882812 -0.914062 -1.03125 -0.875 -1.1875 C -0.84375 -1.351562 -0.789062 -1.492188 -0.71875 -1.609375 C -0.488281 -1.253906 -0.257812 -0.992188 -0.03125 -0.828125 C 0.195312 -0.671875 0.460938 -0.59375 0.765625 -0.59375 C 0.984375 -0.59375 1.195312 -0.632812 1.40625 -0.71875 C 1.613281 -0.8125 1.796875 -0.929688 1.953125 -1.078125 C 2.117188 -1.222656 2.25 -1.382812 2.34375 -1.5625 C 2.445312 -1.75 2.5 -1.945312 2.5 -2.15625 C 2.5 -2.382812 2.445312 -2.609375 2.34375 -2.828125 C 2.25 -3.046875 2.148438 -3.269531 2.046875 -3.5 C 1.941406 -3.726562 1.835938 -3.957031 1.734375 -4.1875 C 1.640625 -4.425781 1.59375 -4.671875 1.59375 -4.921875 C 1.59375 -5.546875 1.941406 -6.203125 2.640625 -6.890625 C 2.828125 -7.066406 3.007812 -7.21875 3.1875 -7.34375 C 3.363281 -7.476562 3.546875 -7.578125 3.734375 -7.640625 C 3.921875 -7.710938 4.125 -7.765625 4.34375 -7.796875 C 4.570312 -7.835938 4.820312 -7.859375 5.09375 -7.859375 C 5.226562 -7.859375 5.335938 -7.851562 5.421875 -7.84375 C 5.515625 -7.84375 5.625 -7.832031 5.75 -7.8125 Z M 5.75 -7.8125 "/></g></g></g><g fill="#a08963" fill-opacity="1"><g transform="translate(46.683438, 137.813395)"><g><path d="M 5.75 -7.8125 C 5.71875 -7.769531 5.660156 -7.6875 5.578125 -7.5625 C 5.503906 -7.4375 5.410156 -7.285156 5.296875 -7.109375 C 5.191406 -6.929688 5.070312 -6.738281 4.9375 -6.53125 C 4.800781 -6.320312 4.671875 -6.109375 4.546875 -5.890625 L 4.3125 -6.046875 C 4.414062 -6.273438 4.484375 -6.429688 4.515625 -6.515625 C 4.554688 -6.609375 4.578125 -6.691406 4.578125 -6.765625 C 4.578125 -7.003906 4.367188 -7.125 3.953125 -7.125 C 3.753906 -7.125 3.566406 -7.082031 3.390625 -7 C 3.222656 -6.925781 3.070312 -6.828125 2.9375 -6.703125 C 2.800781 -6.578125 2.691406 -6.429688 2.609375 -6.265625 C 2.535156 -6.097656 2.5 -5.925781 2.5 -5.75 C 2.5 -5.53125 2.539062 -5.320312 2.625 -5.125 C 2.71875 -4.925781 2.816406 -4.71875 2.921875 -4.5 C 3.035156 -4.28125 3.132812 -4.039062 3.21875 -3.78125 C 3.3125 -3.519531 3.359375 -3.226562 3.359375 -2.90625 C 3.359375 -2.519531 3.257812 -2.15625 3.0625 -1.8125 C 2.875 -1.476562 2.550781 -1.128906 2.09375 -0.765625 C 1.394531 -0.179688 0.753906 0.109375 0.171875 0.109375 C -0.171875 0.109375 -0.441406 0.03125 -0.640625 -0.125 C -0.835938 -0.28125 -0.9375 -0.488281 -0.9375 -0.75 C -0.9375 -0.882812 -0.914062 -1.03125 -0.875 -1.1875 C -0.84375 -1.351562 -0.789062 -1.492188 -0.71875 -1.609375 C -0.488281 -1.253906 -0.257812 -0.992188 -0.03125 -0.828125 C 0.195312 -0.671875 0.460938 -0.59375 0.765625 -0.59375 C 0.984375 -0.59375 1.195312 -0.632812 1.40625 -0.71875 C 1.613281 -0.8125 1.796875 -0.929688 1.953125 -1.078125 C 2.117188 -1.222656 2.25 -1.382812 2.34375 -1.5625 C 2.445312 -1.75 2.5 -1.945312 2.5 -2.15625 C 2.5 -2.382812 2.445312 -2.609375 2.34375 -2.828125 C 2.25 -3.046875 2.148438 -3.269531 2.046875 -3.5 C 1.941406 -3.726562 1.835938 -3.957031 1.734375 -4.1875 C 1.640625 -4.425781 1.59375 -4.671875 1.59375 -4.921875 C 1.59375 -5.546875 1.941406 -6.203125 2.640625 -6.890625 C 2.828125 -7.066406 3.007812 -7.21875 3.1875 -7.34375 C 3.363281 -7.476562 3.546875 -7.578125 3.734375 -7.640625 C 3.921875 -7.710938 4.125 -7.765625 4.34375 -7.796875 C 4.570312 -7.835938 4.820312 -7.859375 5.09375 -7.859375 C 5.226562 -7.859375 5.335938 -7.851562 5.421875 -7.84375 C 5.515625 -7.84375 5.625 -7.832031 5.75 -7.8125 Z M 5.75 -7.8125 "/></g></g></g><g fill="#a08963" fill-opacity="1"><g transform="translate(51.692069, 137.813395)"><g><path d="M 5.3125 -4.1875 C 5.363281 -4.101562 5.398438 -4.023438 5.421875 -3.953125 C 5.453125 -3.878906 5.46875 -3.804688 5.46875 -3.734375 C 5.46875 -3.421875 5.335938 -3.0625 5.078125 -2.65625 C 4.828125 -2.25 4.472656 -1.847656 4.015625 -1.453125 C 3.429688 -0.953125 2.890625 -0.566406 2.390625 -0.296875 C 1.898438 -0.0234375 1.460938 0.109375 1.078125 0.109375 C 0.734375 0.109375 0.460938 -0.00390625 0.265625 -0.234375 C 0.0664062 -0.460938 -0.03125 -0.769531 -0.03125 -1.15625 C -0.03125 -1.40625 -0.00390625 -1.679688 0.046875 -1.984375 C 0.109375 -2.285156 0.195312 -2.597656 0.3125 -2.921875 C 0.425781 -3.242188 0.554688 -3.5625 0.703125 -3.875 C 0.859375 -4.195312 1.023438 -4.5 1.203125 -4.78125 C 1.492188 -5.207031 1.832031 -5.613281 2.21875 -6 C 2.613281 -6.382812 3.03125 -6.71875 3.46875 -7 C 3.90625 -7.289062 4.34375 -7.519531 4.78125 -7.6875 C 5.226562 -7.851562 5.640625 -7.9375 6.015625 -7.9375 C 6.492188 -7.9375 6.734375 -7.75 6.734375 -7.375 C 6.734375 -7.25 6.691406 -7.101562 6.609375 -6.9375 C 6.535156 -6.78125 6.429688 -6.613281 6.296875 -6.4375 C 6.171875 -6.257812 6.019531 -6.085938 5.84375 -5.921875 C 5.664062 -5.765625 5.484375 -5.625 5.296875 -5.5 C 5.128906 -5.382812 4.941406 -5.273438 4.734375 -5.171875 C 4.523438 -5.066406 4.3125 -4.96875 4.09375 -4.875 C 3.875 -4.789062 3.671875 -4.722656 3.484375 -4.671875 C 3.296875 -4.628906 3.140625 -4.609375 3.015625 -4.609375 C 2.710938 -4.609375 2.507812 -4.769531 2.40625 -5.09375 C 2.5625 -5.070312 2.679688 -5.0625 2.765625 -5.0625 C 2.859375 -5.0625 2.953125 -5.0625 3.046875 -5.0625 C 3.710938 -5.0625 4.296875 -5.238281 4.796875 -5.59375 C 5.035156 -5.769531 5.222656 -5.960938 5.359375 -6.171875 C 5.503906 -6.390625 5.578125 -6.59375 5.578125 -6.78125 C 5.578125 -6.914062 5.523438 -7.019531 5.421875 -7.09375 C 5.328125 -7.175781 5.191406 -7.21875 5.015625 -7.21875 C 4.628906 -7.21875 4.234375 -7.082031 3.828125 -6.8125 C 3.429688 -6.539062 3.039062 -6.171875 2.65625 -5.703125 C 2.175781 -5.066406 1.789062 -4.382812 1.5 -3.65625 C 1.207031 -2.925781 1.0625 -2.265625 1.0625 -1.671875 C 1.0625 -1.015625 1.335938 -0.6875 1.890625 -0.6875 C 2.179688 -0.6875 2.484375 -0.769531 2.796875 -0.9375 C 3.117188 -1.113281 3.429688 -1.359375 3.734375 -1.671875 C 4.046875 -1.984375 4.335938 -2.347656 4.609375 -2.765625 C 4.878906 -3.191406 5.113281 -3.664062 5.3125 -4.1875 Z M 5.3125 -4.1875 "/></g></g></g><g fill="#a08963" fill-opacity="1"><g transform="translate(57.975298, 137.813395)"><g><path d="M 6.46875 -1.15625 C 6.0625 -0.863281 5.640625 -0.625 5.203125 -0.4375 C 4.773438 -0.25 4.285156 -0.101562 3.734375 0 C 3.785156 -0.332031 3.875 -0.695312 4 -1.09375 C 4.132812 -1.5 4.285156 -1.914062 4.453125 -2.34375 C 4.628906 -2.769531 4.816406 -3.1875 5.015625 -3.59375 C 5.210938 -4.007812 5.40625 -4.394531 5.59375 -4.75 L 6.21875 -5.921875 C 6.34375 -6.160156 6.421875 -6.332031 6.453125 -6.4375 C 6.492188 -6.539062 6.515625 -6.628906 6.515625 -6.703125 C 6.515625 -6.867188 6.445312 -6.953125 6.3125 -6.953125 C 6.207031 -6.953125 5.957031 -6.820312 5.5625 -6.5625 C 5.164062 -6.300781 4.703125 -5.90625 4.171875 -5.375 C 3.648438 -4.84375 3.097656 -4.164062 2.515625 -3.34375 C 1.929688 -2.53125 1.398438 -1.5625 0.921875 -0.4375 C 0.722656 -0.382812 0.535156 -0.332031 0.359375 -0.28125 C 0.191406 -0.226562 -0.0507812 -0.128906 -0.375 0.015625 C -0.21875 -0.296875 -0.046875 -0.660156 0.140625 -1.078125 C 0.335938 -1.492188 0.53125 -1.925781 0.71875 -2.375 C 0.914062 -2.820312 1.109375 -3.273438 1.296875 -3.734375 C 1.484375 -4.191406 1.648438 -4.613281 1.796875 -5 C 1.941406 -5.382812 2.054688 -5.71875 2.140625 -6 C 2.234375 -6.289062 2.28125 -6.5 2.28125 -6.625 C 2.28125 -6.84375 2.191406 -6.953125 2.015625 -6.953125 C 1.953125 -6.953125 1.875 -6.941406 1.78125 -6.921875 C 1.695312 -6.898438 1.535156 -6.847656 1.296875 -6.765625 L 1.234375 -7.078125 C 1.679688 -7.203125 2.109375 -7.335938 2.515625 -7.484375 C 2.921875 -7.628906 3.335938 -7.796875 3.765625 -7.984375 C 3.816406 -7.796875 3.738281 -7.378906 3.53125 -6.734375 C 3.332031 -6.097656 2.957031 -5.171875 2.40625 -3.953125 C 3.539062 -5.265625 4.546875 -6.253906 5.421875 -6.921875 C 6.296875 -7.597656 6.984375 -7.9375 7.484375 -7.9375 C 7.785156 -7.9375 7.9375 -7.773438 7.9375 -7.453125 C 7.9375 -7.296875 7.867188 -7.050781 7.734375 -6.71875 C 7.609375 -6.394531 7.441406 -6.023438 7.234375 -5.609375 C 7.035156 -5.191406 6.816406 -4.753906 6.578125 -4.296875 C 6.347656 -3.847656 6.128906 -3.421875 5.921875 -3.015625 C 5.722656 -2.617188 5.554688 -2.265625 5.421875 -1.953125 C 5.285156 -1.640625 5.21875 -1.425781 5.21875 -1.3125 C 5.21875 -1.132812 5.300781 -1.046875 5.46875 -1.046875 C 5.550781 -1.046875 5.671875 -1.078125 5.828125 -1.140625 C 5.984375 -1.203125 6.132812 -1.289062 6.28125 -1.40625 Z M 6.46875 -1.15625 "/></g></g></g><g fill="#a08963" fill-opacity="1"><g transform="translate(65.999873, 137.813395)"><g><path d="M 5.34375 -7.484375 L 4.015625 -7.484375 C 3.921875 -7.304688 3.804688 -7.0625 3.671875 -6.75 C 3.535156 -6.4375 3.378906 -6.082031 3.203125 -5.6875 C 3.023438 -5.300781 2.84375 -4.882812 2.65625 -4.4375 C 2.46875 -3.988281 2.265625 -3.523438 2.046875 -3.046875 C 1.773438 -2.441406 1.59375 -2.007812 1.5 -1.75 C 1.40625 -1.488281 1.359375 -1.289062 1.359375 -1.15625 C 1.359375 -0.851562 1.492188 -0.703125 1.765625 -0.703125 C 1.929688 -0.703125 2.132812 -0.75 2.375 -0.84375 C 2.625 -0.945312 2.882812 -1.09375 3.15625 -1.28125 L 3.296875 -1.046875 C 2.890625 -0.753906 2.453125 -0.503906 1.984375 -0.296875 C 1.523438 -0.0976562 1.132812 0 0.8125 0 C 0.332031 0 0.09375 -0.175781 0.09375 -0.53125 C 0.09375 -0.632812 0.101562 -0.734375 0.125 -0.828125 C 0.15625 -0.929688 0.203125 -1.070312 0.265625 -1.25 C 0.296875 -1.351562 0.375 -1.554688 0.5 -1.859375 C 0.625 -2.160156 0.773438 -2.519531 0.953125 -2.9375 C 1.128906 -3.363281 1.316406 -3.8125 1.515625 -4.28125 C 1.722656 -4.75 1.921875 -5.195312 2.109375 -5.625 C 2.296875 -6.0625 2.460938 -6.445312 2.609375 -6.78125 C 2.765625 -7.113281 2.867188 -7.347656 2.921875 -7.484375 L 1.6875 -7.484375 L 1.828125 -7.78125 C 2.128906 -7.78125 2.367188 -7.789062 2.546875 -7.8125 C 2.722656 -7.84375 2.878906 -7.914062 3.015625 -8.03125 C 3.160156 -8.144531 3.289062 -8.316406 3.40625 -8.546875 C 3.519531 -8.773438 3.65625 -9.082031 3.8125 -9.46875 C 3.96875 -9.445312 4.132812 -9.441406 4.3125 -9.453125 C 4.488281 -9.472656 4.679688 -9.519531 4.890625 -9.59375 L 4.140625 -7.78125 L 5.5 -7.78125 Z M 5.34375 -7.484375 "/></g></g></g><g fill="#a08963" fill-opacity="1"><g transform="translate(70.290414, 137.813395)"><g><path d="M 3.875 -8.125 C 3.875 -7.75 3.785156 -7.28125 3.609375 -6.71875 C 3.429688 -6.164062 3.128906 -5.425781 2.703125 -4.5 C 2.429688 -3.882812 2.210938 -3.378906 2.046875 -2.984375 C 1.890625 -2.597656 1.765625 -2.289062 1.671875 -2.0625 C 1.578125 -1.832031 1.515625 -1.664062 1.484375 -1.5625 C 1.453125 -1.46875 1.4375 -1.394531 1.4375 -1.34375 C 1.4375 -1.164062 1.535156 -1.078125 1.734375 -1.078125 C 1.867188 -1.078125 2.085938 -1.144531 2.390625 -1.28125 L 2.5 -1 C 2.40625 -0.957031 2.253906 -0.890625 2.046875 -0.796875 C 1.835938 -0.710938 1.617188 -0.617188 1.390625 -0.515625 C 1.160156 -0.410156 0.925781 -0.3125 0.6875 -0.21875 C 0.457031 -0.125 0.265625 -0.0507812 0.109375 0 C 0.117188 -0.289062 0.144531 -0.5625 0.1875 -0.8125 C 0.238281 -1.0625 0.316406 -1.335938 0.421875 -1.640625 C 0.523438 -1.941406 0.660156 -2.289062 0.828125 -2.6875 C 0.992188 -3.082031 1.203125 -3.5625 1.453125 -4.125 C 1.585938 -4.40625 1.71875 -4.679688 1.84375 -4.953125 C 1.96875 -5.234375 2.078125 -5.492188 2.171875 -5.734375 C 2.265625 -5.984375 2.34375 -6.195312 2.40625 -6.375 C 2.46875 -6.550781 2.5 -6.679688 2.5 -6.765625 C 2.5 -6.941406 2.414062 -7.03125 2.25 -7.03125 C 2.1875 -7.03125 2.109375 -7.019531 2.015625 -7 C 1.929688 -6.976562 1.84375 -6.945312 1.75 -6.90625 C 1.65625 -6.875 1.570312 -6.84375 1.5 -6.8125 C 1.4375 -6.78125 1.390625 -6.757812 1.359375 -6.75 L 1.25 -7.0625 C 1.519531 -7.144531 1.753906 -7.222656 1.953125 -7.296875 C 2.160156 -7.378906 2.359375 -7.457031 2.546875 -7.53125 C 2.742188 -7.601562 2.941406 -7.6875 3.140625 -7.78125 C 3.347656 -7.882812 3.59375 -8 3.875 -8.125 Z M 4.859375 -10.109375 C 4.859375 -9.941406 4.796875 -9.785156 4.671875 -9.640625 C 4.554688 -9.503906 4.414062 -9.4375 4.25 -9.4375 C 4.125 -9.4375 4.019531 -9.476562 3.9375 -9.5625 C 3.851562 -9.644531 3.8125 -9.753906 3.8125 -9.890625 C 3.8125 -10.054688 3.875 -10.203125 4 -10.328125 C 4.125 -10.453125 4.269531 -10.515625 4.4375 -10.515625 C 4.5625 -10.515625 4.660156 -10.472656 4.734375 -10.390625 C 4.816406 -10.316406 4.859375 -10.222656 4.859375 -10.109375 Z M 4.859375 -10.109375 "/></g></g></g><g fill="#a08963" fill-opacity="1"><g transform="translate(74.365534, 137.813395)"><g><path d="M 6.5 -1.171875 C 6.175781 -0.929688 5.773438 -0.710938 5.296875 -0.515625 C 4.828125 -0.316406 4.320312 -0.144531 3.78125 0 C 3.800781 -0.226562 3.851562 -0.492188 3.9375 -0.796875 C 4.03125 -1.097656 4.132812 -1.40625 4.25 -1.71875 C 4.363281 -2.03125 4.484375 -2.328125 4.609375 -2.609375 C 4.734375 -2.890625 4.832031 -3.117188 4.90625 -3.296875 C 4.476562 -2.785156 4.078125 -2.351562 3.703125 -2 C 3.335938 -1.65625 2.945312 -1.328125 2.53125 -1.015625 C 2.070312 -0.671875 1.648438 -0.410156 1.265625 -0.234375 C 0.878906 -0.0546875 0.566406 0.03125 0.328125 0.03125 C -0.0976562 0.03125 -0.3125 -0.25 -0.3125 -0.8125 C -0.3125 -1.1875 -0.21875 -1.628906 -0.03125 -2.140625 C 0.144531 -2.660156 0.390625 -3.140625 0.703125 -3.578125 C 1.023438 -4.054688 1.40625 -4.503906 1.84375 -4.921875 C 2.28125 -5.335938 2.75 -5.71875 3.25 -6.0625 C 3.757812 -6.40625 4.296875 -6.703125 4.859375 -6.953125 C 5.421875 -7.203125 5.992188 -7.40625 6.578125 -7.5625 C 6.878906 -7.644531 7.207031 -7.707031 7.5625 -7.75 C 7.914062 -7.800781 8.222656 -7.828125 8.484375 -7.828125 C 8.691406 -7.828125 8.796875 -7.753906 8.796875 -7.609375 C 8.796875 -7.546875 8.769531 -7.453125 8.71875 -7.328125 C 8.675781 -7.210938 8.613281 -7.0625 8.53125 -6.875 C 8.289062 -6.9375 8.070312 -6.972656 7.875 -6.984375 C 7.675781 -6.992188 7.445312 -7 7.1875 -7 C 6.28125 -7 5.460938 -6.84375 4.734375 -6.53125 C 4.003906 -6.21875 3.296875 -5.734375 2.609375 -5.078125 C 2.015625 -4.515625 1.554688 -3.921875 1.234375 -3.296875 C 0.921875 -2.679688 0.765625 -2.09375 0.765625 -1.53125 C 0.765625 -1.289062 0.8125 -1.097656 0.90625 -0.953125 C 1 -0.804688 1.128906 -0.734375 1.296875 -0.734375 C 1.472656 -0.734375 1.695312 -0.816406 1.96875 -0.984375 C 2.238281 -1.148438 2.519531 -1.375 2.8125 -1.65625 C 3.101562 -1.945312 3.394531 -2.28125 3.6875 -2.65625 C 3.988281 -3.03125 4.257812 -3.421875 4.5 -3.828125 C 4.78125 -4.304688 5 -4.75 5.15625 -5.15625 C 5.320312 -5.570312 5.460938 -6.046875 5.578125 -6.578125 C 5.859375 -6.390625 6 -6.085938 6 -5.671875 C 6 -5.335938 5.925781 -5.003906 5.78125 -4.671875 C 5.632812 -4.347656 5.398438 -3.976562 5.078125 -3.5625 C 5.242188 -3.582031 5.394531 -3.601562 5.53125 -3.625 C 5.675781 -3.644531 5.90625 -3.710938 6.21875 -3.828125 L 5.421875 -2 C 5.328125 -1.769531 5.265625 -1.59375 5.234375 -1.46875 C 5.210938 -1.34375 5.210938 -1.242188 5.234375 -1.171875 C 5.265625 -1.109375 5.300781 -1.070312 5.34375 -1.0625 C 5.394531 -1.050781 5.4375 -1.046875 5.46875 -1.046875 C 5.539062 -1.046875 5.640625 -1.070312 5.765625 -1.125 C 5.890625 -1.175781 6.070312 -1.273438 6.3125 -1.421875 Z M 6.5 -1.171875 "/></g></g></g><g fill="#a08963" fill-opacity="1"><g transform="translate(81.959267, 137.813395)"><g><path d="M 5.734375 -13 C 5.734375 -12.769531 5.703125 -12.519531 5.640625 -12.25 C 5.585938 -11.988281 5.5 -11.679688 5.375 -11.328125 C 5.257812 -10.984375 5.101562 -10.570312 4.90625 -10.09375 C 4.707031 -9.613281 4.46875 -9.046875 4.1875 -8.390625 C 3.675781 -7.222656 3.234375 -6.179688 2.859375 -5.265625 C 2.484375 -4.359375 2.164062 -3.554688 1.90625 -2.859375 C 1.625 -2.097656 1.484375 -1.582031 1.484375 -1.3125 C 1.484375 -1.21875 1.515625 -1.128906 1.578125 -1.046875 C 1.640625 -0.972656 1.722656 -0.9375 1.828125 -0.9375 C 1.921875 -0.9375 2.039062 -0.976562 2.1875 -1.0625 C 2.332031 -1.144531 2.539062 -1.285156 2.8125 -1.484375 L 2.90625 -1.59375 L 3.09375 -1.34375 C 2.945312 -1.1875 2.796875 -1.0625 2.640625 -0.96875 C 2.492188 -0.875 2.332031 -0.75 2.15625 -0.59375 C 1.539062 -0.195312 1.109375 0 0.859375 0 C 0.671875 0 0.523438 -0.0664062 0.421875 -0.203125 C 0.328125 -0.335938 0.28125 -0.523438 0.28125 -0.765625 C 0.28125 -1.203125 0.398438 -1.742188 0.640625 -2.390625 C 0.753906 -2.703125 0.875 -3.03125 1 -3.375 C 1.132812 -3.726562 1.285156 -4.113281 1.453125 -4.53125 C 1.554688 -4.789062 1.664062 -5.054688 1.78125 -5.328125 C 1.894531 -5.597656 2.007812 -5.863281 2.125 -6.125 C 2.226562 -6.351562 2.304688 -6.539062 2.359375 -6.6875 C 2.421875 -6.832031 2.488281 -7.003906 2.5625 -7.203125 L 3.46875 -9.359375 C 3.632812 -9.773438 3.773438 -10.125 3.890625 -10.40625 C 4.015625 -10.695312 4.109375 -10.9375 4.171875 -11.125 C 4.210938 -11.269531 4.238281 -11.367188 4.25 -11.421875 C 4.257812 -11.484375 4.265625 -11.546875 4.265625 -11.609375 C 4.265625 -11.773438 4.171875 -11.859375 3.984375 -11.859375 C 3.921875 -11.859375 3.867188 -11.851562 3.828125 -11.84375 C 3.785156 -11.84375 3.671875 -11.804688 3.484375 -11.734375 C 3.460938 -11.722656 3.4375 -11.710938 3.40625 -11.703125 C 3.382812 -11.703125 3.363281 -11.695312 3.34375 -11.6875 L 3.234375 -11.953125 L 3.390625 -12.03125 C 3.710938 -12.15625 3.988281 -12.265625 4.21875 -12.359375 C 4.445312 -12.460938 4.648438 -12.550781 4.828125 -12.625 C 5.003906 -12.695312 5.160156 -12.757812 5.296875 -12.8125 C 5.441406 -12.875 5.585938 -12.9375 5.734375 -13 Z M 5.734375 -13 "/></g></g></g><g fill="#a08963" fill-opacity="1"><g transform="translate(85.890768, 137.813395)"><g><path d="M 5.75 -7.8125 C 5.71875 -7.769531 5.660156 -7.6875 5.578125 -7.5625 C 5.503906 -7.4375 5.410156 -7.285156 5.296875 -7.109375 C 5.191406 -6.929688 5.070312 -6.738281 4.9375 -6.53125 C 4.800781 -6.320312 4.671875 -6.109375 4.546875 -5.890625 L 4.3125 -6.046875 C 4.414062 -6.273438 4.484375 -6.429688 4.515625 -6.515625 C 4.554688 -6.609375 4.578125 -6.691406 4.578125 -6.765625 C 4.578125 -7.003906 4.367188 -7.125 3.953125 -7.125 C 3.753906 -7.125 3.566406 -7.082031 3.390625 -7 C 3.222656 -6.925781 3.070312 -6.828125 2.9375 -6.703125 C 2.800781 -6.578125 2.691406 -6.429688 2.609375 -6.265625 C 2.535156 -6.097656 2.5 -5.925781 2.5 -5.75 C 2.5 -5.53125 2.539062 -5.320312 2.625 -5.125 C 2.71875 -4.925781 2.816406 -4.71875 2.921875 -4.5 C 3.035156 -4.28125 3.132812 -4.039062 3.21875 -3.78125 C 3.3125 -3.519531 3.359375 -3.226562 3.359375 -2.90625 C 3.359375 -2.519531 3.257812 -2.15625 3.0625 -1.8125 C 2.875 -1.476562 2.550781 -1.128906 2.09375 -0.765625 C 1.394531 -0.179688 0.753906 0.109375 0.171875 0.109375 C -0.171875 0.109375 -0.441406 0.03125 -0.640625 -0.125 C -0.835938 -0.28125 -0.9375 -0.488281 -0.9375 -0.75 C -0.9375 -0.882812 -0.914062 -1.03125 -0.875 -1.1875 C -0.84375 -1.351562 -0.789062 -1.492188 -0.71875 -1.609375 C -0.488281 -1.253906 -0.257812 -0.992188 -0.03125 -0.828125 C 0.195312 -0.671875 0.460938 -0.59375 0.765625 -0.59375 C 0.984375 -0.59375 1.195312 -0.632812 1.40625 -0.71875 C 1.613281 -0.8125 1.796875 -0.929688 1.953125 -1.078125 C 2.117188 -1.222656 2.25 -1.382812 2.34375 -1.5625 C 2.445312 -1.75 2.5 -1.945312 2.5 -2.15625 C 2.5 -2.382812 2.445312 -2.609375 2.34375 -2.828125 C 2.25 -3.046875 2.148438 -3.269531 2.046875 -3.5 C 1.941406 -3.726562 1.835938 -3.957031 1.734375 -4.1875 C 1.640625 -4.425781 1.59375 -4.671875 1.59375 -4.921875 C 1.59375 -5.546875 1.941406 -6.203125 2.640625 -6.890625 C 2.828125 -7.066406 3.007812 -7.21875 3.1875 -7.34375 C 3.363281 -7.476562 3.546875 -7.578125 3.734375 -7.640625 C 3.921875 -7.710938 4.125 -7.765625 4.34375 -7.796875 C 4.570312 -7.835938 4.820312 -7.859375 5.09375 -7.859375 C 5.226562 -7.859375 5.335938 -7.851562 5.421875 -7.84375 C 5.515625 -7.84375 5.625 -7.832031 5.75 -7.8125 Z M 5.75 -7.8125 "/></g></g></g><g fill="#a08963" fill-opacity="1"><g transform="translate(90.8994, 137.813395)"><g/></g></g><g fill="#a08963" fill-opacity="1"><g transform="translate(94.382105, 137.813395)"><g><path d="M 4.984375 -7.359375 L 3.453125 -7.359375 L 0.890625 -0.09375 L 0.796875 -0.09375 C 0.597656 -0.09375 0.457031 -0.0625 0.375 0 C 0.300781 0.0625 0.210938 0.210938 0.109375 0.453125 C -0.0664062 0.847656 -0.253906 1.265625 -0.453125 1.703125 C -0.660156 2.140625 -0.84375 2.492188 -1 2.765625 C -1.195312 3.117188 -1.421875 3.453125 -1.671875 3.765625 C -1.929688 4.078125 -2.203125 4.34375 -2.484375 4.5625 C -2.765625 4.789062 -3.046875 4.96875 -3.328125 5.09375 C -3.617188 5.21875 -3.890625 5.28125 -4.140625 5.28125 C -4.421875 5.28125 -4.644531 5.210938 -4.8125 5.078125 C -4.988281 4.953125 -5.078125 4.785156 -5.078125 4.578125 C -5.078125 4.492188 -5.0625 4.398438 -5.03125 4.296875 C -4.707031 4.378906 -4.378906 4.421875 -4.046875 4.421875 C -3.566406 4.421875 -3.117188 4.304688 -2.703125 4.078125 C -2.285156 3.859375 -1.929688 3.550781 -1.640625 3.15625 C -1.367188 2.820312 -1.113281 2.414062 -0.875 1.9375 C -0.644531 1.46875 -0.378906 0.828125 -0.078125 0.015625 C -0.00390625 -0.171875 0.0625 -0.34375 0.125 -0.5 C 0.1875 -0.664062 0.242188 -0.832031 0.296875 -1 C 0.359375 -1.164062 0.421875 -1.351562 0.484375 -1.5625 C 0.554688 -1.78125 0.644531 -2.035156 0.75 -2.328125 C 0.875 -2.671875 0.992188 -3.007812 1.109375 -3.34375 C 1.222656 -3.6875 1.335938 -4.039062 1.453125 -4.40625 L 2.4375 -7.359375 L 1.40625 -7.359375 L 1.484375 -7.609375 C 1.515625 -7.628906 1.554688 -7.640625 1.609375 -7.640625 L 1.859375 -7.640625 C 2.128906 -7.671875 2.34375 -7.753906 2.5 -7.890625 C 2.65625 -8.035156 2.8125 -8.285156 2.96875 -8.640625 C 3.144531 -9.035156 3.320312 -9.390625 3.5 -9.703125 C 3.6875 -10.015625 3.894531 -10.304688 4.125 -10.578125 C 4.363281 -10.847656 4.628906 -11.097656 4.921875 -11.328125 C 5.222656 -11.554688 5.566406 -11.789062 5.953125 -12.03125 C 6.503906 -12.363281 6.972656 -12.597656 7.359375 -12.734375 C 7.753906 -12.867188 8.128906 -12.9375 8.484375 -12.9375 C 8.921875 -12.9375 9.140625 -12.847656 9.140625 -12.671875 C 9.140625 -12.585938 9.113281 -12.503906 9.0625 -12.421875 L 8.953125 -12.046875 L 8.515625 -10.71875 L 8.203125 -10.71875 C 8.265625 -10.914062 8.3125 -11.082031 8.34375 -11.21875 C 8.382812 -11.363281 8.40625 -11.484375 8.40625 -11.578125 C 8.40625 -11.921875 8.109375 -12.09375 7.515625 -12.09375 C 6.628906 -12.09375 5.847656 -11.71875 5.171875 -10.96875 C 4.929688 -10.695312 4.691406 -10.316406 4.453125 -9.828125 C 4.222656 -9.347656 3.953125 -8.710938 3.640625 -7.921875 L 3.5625 -7.671875 L 5.078125 -7.671875 Z M 4.984375 -7.359375 "/></g></g></g><g fill="#a08963" fill-opacity="1"><g transform="translate(98.080232, 137.813395)"><g><path d="M 6.859375 -6.96875 C 6.679688 -6.988281 6.523438 -7 6.390625 -7 C 6.253906 -7.007812 6.117188 -7.015625 5.984375 -7.015625 C 5.222656 -7.015625 4.539062 -6.875 3.9375 -6.59375 C 3.332031 -6.320312 2.820312 -5.914062 2.40625 -5.375 C 2.21875 -5.101562 2.035156 -4.804688 1.859375 -4.484375 C 1.679688 -4.171875 1.523438 -3.847656 1.390625 -3.515625 C 1.265625 -3.179688 1.160156 -2.859375 1.078125 -2.546875 C 1.003906 -2.234375 0.96875 -1.953125 0.96875 -1.703125 C 0.96875 -1.390625 1.054688 -1.140625 1.234375 -0.953125 C 1.421875 -0.765625 1.648438 -0.671875 1.921875 -0.671875 C 2.242188 -0.671875 2.609375 -0.820312 3.015625 -1.125 C 3.421875 -1.425781 3.816406 -1.851562 4.203125 -2.40625 C 4.546875 -2.863281 4.8125 -3.332031 5 -3.8125 C 5.195312 -4.289062 5.296875 -4.71875 5.296875 -5.09375 C 5.296875 -5.320312 5.25 -5.5 5.15625 -5.625 C 5.0625 -5.75 4.9375 -5.8125 4.78125 -5.8125 C 4.269531 -5.8125 3.785156 -5.3125 3.328125 -4.3125 C 3.285156 -4.382812 3.265625 -4.441406 3.265625 -4.484375 C 3.273438 -4.535156 3.28125 -4.59375 3.28125 -4.65625 C 3.28125 -5 3.429688 -5.3125 3.734375 -5.59375 C 4.003906 -5.875 4.285156 -6.097656 4.578125 -6.265625 C 4.867188 -6.429688 5.125 -6.515625 5.34375 -6.515625 C 5.65625 -6.515625 5.910156 -6.394531 6.109375 -6.15625 C 6.304688 -5.925781 6.40625 -5.640625 6.40625 -5.296875 C 6.40625 -4.785156 6.242188 -4.238281 5.921875 -3.65625 C 5.597656 -3.070312 5.125 -2.488281 4.5 -1.90625 C 3.84375 -1.289062 3.222656 -0.816406 2.640625 -0.484375 C 2.054688 -0.160156 1.550781 0 1.125 0 C 0.769531 0 0.46875 -0.125 0.21875 -0.375 C -0.0195312 -0.632812 -0.140625 -0.960938 -0.140625 -1.359375 C -0.140625 -1.796875 -0.0625 -2.242188 0.09375 -2.703125 C 0.257812 -3.160156 0.484375 -3.613281 0.765625 -4.0625 C 1.054688 -4.507812 1.40625 -4.941406 1.8125 -5.359375 C 2.21875 -5.773438 2.664062 -6.15625 3.15625 -6.5 C 3.4375 -6.675781 3.722656 -6.84375 4.015625 -7 C 4.316406 -7.15625 4.617188 -7.289062 4.921875 -7.40625 C 5.222656 -7.53125 5.507812 -7.625 5.78125 -7.6875 C 6.050781 -7.757812 6.300781 -7.796875 6.53125 -7.796875 C 6.832031 -7.796875 6.984375 -7.675781 6.984375 -7.4375 C 6.984375 -7.320312 6.953125 -7.207031 6.890625 -7.09375 Z M 6.859375 -6.96875 "/></g></g></g><g fill="#a08963" fill-opacity="1"><g transform="translate(104.919967, 137.813395)"><g><path d="M 6.28125 -6.875 C 6.132812 -6.914062 6.019531 -6.941406 5.9375 -6.953125 C 5.851562 -6.960938 5.757812 -6.96875 5.65625 -6.96875 C 5.257812 -6.96875 4.863281 -6.820312 4.46875 -6.53125 C 4.070312 -6.25 3.65625 -5.796875 3.21875 -5.171875 C 3.03125 -4.910156 2.859375 -4.644531 2.703125 -4.375 C 2.554688 -4.101562 2.40625 -3.785156 2.25 -3.421875 C 2.101562 -3.054688 1.9375 -2.625 1.75 -2.125 C 1.570312 -1.625 1.375 -1.023438 1.15625 -0.328125 C 0.925781 -0.273438 0.722656 -0.222656 0.546875 -0.171875 C 0.367188 -0.128906 0.179688 -0.0703125 -0.015625 0 C 0.460938 -1.289062 0.84375 -2.332031 1.125 -3.125 C 1.40625 -3.914062 1.613281 -4.53125 1.75 -4.96875 C 1.894531 -5.40625 1.984375 -5.707031 2.015625 -5.875 C 2.054688 -6.050781 2.078125 -6.175781 2.078125 -6.25 C 2.078125 -6.445312 2 -6.546875 1.84375 -6.546875 C 1.71875 -6.546875 1.503906 -6.460938 1.203125 -6.296875 L 1.078125 -6.59375 C 1.546875 -6.832031 1.960938 -7.054688 2.328125 -7.265625 C 2.691406 -7.472656 3.066406 -7.726562 3.453125 -8.03125 C 3.460938 -7.957031 3.472656 -7.863281 3.484375 -7.75 C 3.492188 -7.644531 3.484375 -7.492188 3.453125 -7.296875 C 3.421875 -7.097656 3.359375 -6.835938 3.265625 -6.515625 C 3.171875 -6.203125 3.03125 -5.796875 2.84375 -5.296875 C 3.695312 -6.242188 4.390625 -6.925781 4.921875 -7.34375 C 5.460938 -7.757812 5.882812 -7.96875 6.1875 -7.96875 C 6.257812 -7.96875 6.320312 -7.960938 6.375 -7.953125 C 6.4375 -7.941406 6.519531 -7.90625 6.625 -7.84375 Z M 6.28125 -6.875 "/></g></g></g><g fill="#a08963" fill-opacity="1"><g transform="translate(110.503059, 137.813395)"><g/></g></g><g fill="#a08963" fill-opacity="1"><g transform="translate(113.985765, 137.813395)"><g><path d="M 6.5 -1.171875 C 6.175781 -0.929688 5.773438 -0.710938 5.296875 -0.515625 C 4.828125 -0.316406 4.320312 -0.144531 3.78125 0 C 3.800781 -0.226562 3.851562 -0.492188 3.9375 -0.796875 C 4.03125 -1.097656 4.132812 -1.40625 4.25 -1.71875 C 4.363281 -2.03125 4.484375 -2.328125 4.609375 -2.609375 C 4.734375 -2.890625 4.832031 -3.117188 4.90625 -3.296875 C 4.476562 -2.785156 4.078125 -2.351562 3.703125 -2 C 3.335938 -1.65625 2.945312 -1.328125 2.53125 -1.015625 C 2.070312 -0.671875 1.648438 -0.410156 1.265625 -0.234375 C 0.878906 -0.0546875 0.566406 0.03125 0.328125 0.03125 C -0.0976562 0.03125 -0.3125 -0.25 -0.3125 -0.8125 C -0.3125 -1.1875 -0.21875 -1.628906 -0.03125 -2.140625 C 0.144531 -2.660156 0.390625 -3.140625 0.703125 -3.578125 C 1.023438 -4.054688 1.40625 -4.503906 1.84375 -4.921875 C 2.28125 -5.335938 2.75 -5.71875 3.25 -6.0625 C 3.757812 -6.40625 4.296875 -6.703125 4.859375 -6.953125 C 5.421875 -7.203125 5.992188 -7.40625 6.578125 -7.5625 C 6.878906 -7.644531 7.207031 -7.707031 7.5625 -7.75 C 7.914062 -7.800781 8.222656 -7.828125 8.484375 -7.828125 C 8.691406 -7.828125 8.796875 -7.753906 8.796875 -7.609375 C 8.796875 -7.546875 8.769531 -7.453125 8.71875 -7.328125 C 8.675781 -7.210938 8.613281 -7.0625 8.53125 -6.875 C 8.289062 -6.9375 8.070312 -6.972656 7.875 -6.984375 C 7.675781 -6.992188 7.445312 -7 7.1875 -7 C 6.28125 -7 5.460938 -6.84375 4.734375 -6.53125 C 4.003906 -6.21875 3.296875 -5.734375 2.609375 -5.078125 C 2.015625 -4.515625 1.554688 -3.921875 1.234375 -3.296875 C 0.921875 -2.679688 0.765625 -2.09375 0.765625 -1.53125 C 0.765625 -1.289062 0.8125 -1.097656 0.90625 -0.953125 C 1 -0.804688 1.128906 -0.734375 1.296875 -0.734375 C 1.472656 -0.734375 1.695312 -0.816406 1.96875 -0.984375 C 2.238281 -1.148438 2.519531 -1.375 2.8125 -1.65625 C 3.101562 -1.945312 3.394531 -2.28125 3.6875 -2.65625 C 3.988281 -3.03125 4.257812 -3.421875 4.5 -3.828125 C 4.78125 -4.304688 5 -4.75 5.15625 -5.15625 C 5.320312 -5.570312 5.460938 -6.046875 5.578125 -6.578125 C 5.859375 -6.390625 6 -6.085938 6 -5.671875 C 6 -5.335938 5.925781 -5.003906 5.78125 -4.671875 C 5.632812 -4.347656 5.398438 -3.976562 5.078125 -3.5625 C 5.242188 -3.582031 5.394531 -3.601562 5.53125 -3.625 C 5.675781 -3.644531 5.90625 -3.710938 6.21875 -3.828125 L 5.421875 -2 C 5.328125 -1.769531 5.265625 -1.59375 5.234375 -1.46875 C 5.210938 -1.34375 5.210938 -1.242188 5.234375 -1.171875 C 5.265625 -1.109375 5.300781 -1.070312 5.34375 -1.0625 C 5.394531 -1.050781 5.4375 -1.046875 5.46875 -1.046875 C 5.539062 -1.046875 5.640625 -1.070312 5.765625 -1.125 C 5.890625 -1.175781 6.070312 -1.273438 6.3125 -1.421875 Z M 6.5 -1.171875 "/></g></g></g><g fill="#a08963" fill-opacity="1"><g transform="translate(121.579497, 137.813395)"><g/></g></g><g fill="#a08963" fill-opacity="1"><g transform="translate(125.062203, 137.813395)"><g><path d="M 6.28125 -6.875 C 6.132812 -6.914062 6.019531 -6.941406 5.9375 -6.953125 C 5.851562 -6.960938 5.757812 -6.96875 5.65625 -6.96875 C 5.257812 -6.96875 4.863281 -6.820312 4.46875 -6.53125 C 4.070312 -6.25 3.65625 -5.796875 3.21875 -5.171875 C 3.03125 -4.910156 2.859375 -4.644531 2.703125 -4.375 C 2.554688 -4.101562 2.40625 -3.785156 2.25 -3.421875 C 2.101562 -3.054688 1.9375 -2.625 1.75 -2.125 C 1.570312 -1.625 1.375 -1.023438 1.15625 -0.328125 C 0.925781 -0.273438 0.722656 -0.222656 0.546875 -0.171875 C 0.367188 -0.128906 0.179688 -0.0703125 -0.015625 0 C 0.460938 -1.289062 0.84375 -2.332031 1.125 -3.125 C 1.40625 -3.914062 1.613281 -4.53125 1.75 -4.96875 C 1.894531 -5.40625 1.984375 -5.707031 2.015625 -5.875 C 2.054688 -6.050781 2.078125 -6.175781 2.078125 -6.25 C 2.078125 -6.445312 2 -6.546875 1.84375 -6.546875 C 1.71875 -6.546875 1.503906 -6.460938 1.203125 -6.296875 L 1.078125 -6.59375 C 1.546875 -6.832031 1.960938 -7.054688 2.328125 -7.265625 C 2.691406 -7.472656 3.066406 -7.726562 3.453125 -8.03125 C 3.460938 -7.957031 3.472656 -7.863281 3.484375 -7.75 C 3.492188 -7.644531 3.484375 -7.492188 3.453125 -7.296875 C 3.421875 -7.097656 3.359375 -6.835938 3.265625 -6.515625 C 3.171875 -6.203125 3.03125 -5.796875 2.84375 -5.296875 C 3.695312 -6.242188 4.390625 -6.925781 4.921875 -7.34375 C 5.460938 -7.757812 5.882812 -7.96875 6.1875 -7.96875 C 6.257812 -7.96875 6.320312 -7.960938 6.375 -7.953125 C 6.4375 -7.941406 6.519531 -7.90625 6.625 -7.84375 Z M 6.28125 -6.875 "/></g></g></g><g fill="#a08963" fill-opacity="1"><g transform="translate(130.645295, 137.813395)"><g><path d="M 6.5 -1.171875 C 6.175781 -0.929688 5.773438 -0.710938 5.296875 -0.515625 C 4.828125 -0.316406 4.320312 -0.144531 3.78125 0 C 3.800781 -0.226562 3.851562 -0.492188 3.9375 -0.796875 C 4.03125 -1.097656 4.132812 -1.40625 4.25 -1.71875 C 4.363281 -2.03125 4.484375 -2.328125 4.609375 -2.609375 C 4.734375 -2.890625 4.832031 -3.117188 4.90625 -3.296875 C 4.476562 -2.785156 4.078125 -2.351562 3.703125 -2 C 3.335938 -1.65625 2.945312 -1.328125 2.53125 -1.015625 C 2.070312 -0.671875 1.648438 -0.410156 1.265625 -0.234375 C 0.878906 -0.0546875 0.566406 0.03125 0.328125 0.03125 C -0.0976562 0.03125 -0.3125 -0.25 -0.3125 -0.8125 C -0.3125 -1.1875 -0.21875 -1.628906 -0.03125 -2.140625 C 0.144531 -2.660156 0.390625 -3.140625 0.703125 -3.578125 C 1.023438 -4.054688 1.40625 -4.503906 1.84375 -4.921875 C 2.28125 -5.335938 2.75 -5.71875 3.25 -6.0625 C 3.757812 -6.40625 4.296875 -6.703125 4.859375 -6.953125 C 5.421875 -7.203125 5.992188 -7.40625 6.578125 -7.5625 C 6.878906 -7.644531 7.207031 -7.707031 7.5625 -7.75 C 7.914062 -7.800781 8.222656 -7.828125 8.484375 -7.828125 C 8.691406 -7.828125 8.796875 -7.753906 8.796875 -7.609375 C 8.796875 -7.546875 8.769531 -7.453125 8.71875 -7.328125 C 8.675781 -7.210938 8.613281 -7.0625 8.53125 -6.875 C 8.289062 -6.9375 8.070312 -6.972656 7.875 -6.984375 C 7.675781 -6.992188 7.445312 -7 7.1875 -7 C 6.28125 -7 5.460938 -6.84375 4.734375 -6.53125 C 4.003906 -6.21875 3.296875 -5.734375 2.609375 -5.078125 C 2.015625 -4.515625 1.554688 -3.921875 1.234375 -3.296875 C 0.921875 -2.679688 0.765625 -2.09375 0.765625 -1.53125 C 0.765625 -1.289062 0.8125 -1.097656 0.90625 -0.953125 C 1 -0.804688 1.128906 -0.734375 1.296875 -0.734375 C 1.472656 -0.734375 1.695312 -0.816406 1.96875 -0.984375 C 2.238281 -1.148438 2.519531 -1.375 2.8125 -1.65625 C 3.101562 -1.945312 3.394531 -2.28125 3.6875 -2.65625 C 3.988281 -3.03125 4.257812 -3.421875 4.5 -3.828125 C 4.78125 -4.304688 5 -4.75 5.15625 -5.15625 C 5.320312 -5.570312 5.460938 -6.046875 5.578125 -6.578125 C 5.859375 -6.390625 6 -6.085938 6 -5.671875 C 6 -5.335938 5.925781 -5.003906 5.78125 -4.671875 C 5.632812 -4.347656 5.398438 -3.976562 5.078125 -3.5625 C 5.242188 -3.582031 5.394531 -3.601562 5.53125 -3.625 C 5.675781 -3.644531 5.90625 -3.710938 6.21875 -3.828125 L 5.421875 -2 C 5.328125 -1.769531 5.265625 -1.59375 5.234375 -1.46875 C 5.210938 -1.34375 5.210938 -1.242188 5.234375 -1.171875 C 5.265625 -1.109375 5.300781 -1.070312 5.34375 -1.0625 C 5.394531 -1.050781 5.4375 -1.046875 5.46875 -1.046875 C 5.539062 -1.046875 5.640625 -1.070312 5.765625 -1.125 C 5.890625 -1.175781 6.070312 -1.273438 6.3125 -1.421875 Z M 6.5 -1.171875 "/></g></g></g><g fill="#a08963" fill-opacity="1"><g transform="translate(138.239027, 137.813395)"><g><path d="M 9.875 -13 C 9.875 -12.894531 9.859375 -12.765625 9.828125 -12.609375 C 9.796875 -12.460938 9.742188 -12.28125 9.671875 -12.0625 C 9.597656 -11.84375 9.503906 -11.582031 9.390625 -11.28125 C 9.285156 -10.988281 9.148438 -10.632812 8.984375 -10.21875 L 8 -7.78125 C 8.226562 -7.675781 8.378906 -7.5625 8.453125 -7.4375 C 8.523438 -7.3125 8.582031 -7.113281 8.625 -6.84375 C 8.5 -6.882812 8.351562 -6.921875 8.1875 -6.953125 C 8.019531 -6.984375 7.863281 -7.003906 7.71875 -7.015625 C 7.226562 -5.765625 6.835938 -4.769531 6.546875 -4.03125 C 6.265625 -3.289062 6.050781 -2.726562 5.90625 -2.34375 C 5.757812 -1.957031 5.664062 -1.691406 5.625 -1.546875 C 5.582031 -1.410156 5.5625 -1.3125 5.5625 -1.25 C 5.5625 -1.070312 5.648438 -0.984375 5.828125 -0.984375 C 5.941406 -0.984375 6.0625 -1.007812 6.1875 -1.0625 C 6.3125 -1.125 6.507812 -1.25 6.78125 -1.4375 L 6.96875 -1.203125 C 6.601562 -0.941406 6.195312 -0.71875 5.75 -0.53125 C 5.3125 -0.34375 4.765625 -0.15625 4.109375 0.03125 C 4.148438 -0.21875 4.234375 -0.53125 4.359375 -0.90625 C 4.484375 -1.289062 4.628906 -1.710938 4.796875 -2.171875 C 4.960938 -2.628906 5.140625 -3.097656 5.328125 -3.578125 C 5.523438 -4.066406 5.710938 -4.535156 5.890625 -4.984375 C 6.078125 -5.429688 6.242188 -5.835938 6.390625 -6.203125 C 6.535156 -6.566406 6.648438 -6.859375 6.734375 -7.078125 C 6.003906 -7.046875 5.28125 -6.867188 4.5625 -6.546875 C 3.851562 -6.222656 3.21875 -5.804688 2.65625 -5.296875 C 2.101562 -4.785156 1.65625 -4.210938 1.3125 -3.578125 C 0.96875 -2.953125 0.796875 -2.320312 0.796875 -1.6875 C 0.796875 -1.15625 0.988281 -0.890625 1.375 -0.890625 C 1.695312 -0.890625 2.050781 -1.039062 2.4375 -1.34375 C 2.832031 -1.65625 3.21875 -2.050781 3.59375 -2.53125 C 3.976562 -3.019531 4.328125 -3.566406 4.640625 -4.171875 C 4.953125 -4.785156 5.195312 -5.40625 5.375 -6.03125 C 5.476562 -5.8125 5.53125 -5.582031 5.53125 -5.34375 C 5.53125 -5.007812 5.4375 -4.640625 5.25 -4.234375 C 5.070312 -3.835938 4.835938 -3.441406 4.546875 -3.046875 C 4.253906 -2.648438 3.921875 -2.269531 3.546875 -1.90625 C 3.179688 -1.539062 2.804688 -1.210938 2.421875 -0.921875 C 2.046875 -0.640625 1.679688 -0.414062 1.328125 -0.25 C 0.984375 -0.0820312 0.6875 0 0.4375 0 C 0.195312 0 0.0078125 -0.0703125 -0.125 -0.21875 C -0.257812 -0.375 -0.328125 -0.585938 -0.328125 -0.859375 C -0.328125 -1.484375 -0.128906 -2.164062 0.265625 -2.90625 C 0.660156 -3.644531 1.207031 -4.359375 1.90625 -5.046875 C 3.425781 -6.535156 5.128906 -7.445312 7.015625 -7.78125 C 7.335938 -8.632812 7.585938 -9.285156 7.765625 -9.734375 C 7.941406 -10.179688 8.0625 -10.515625 8.125 -10.734375 C 8.195312 -10.953125 8.238281 -11.085938 8.25 -11.140625 C 8.269531 -11.191406 8.28125 -11.25 8.28125 -11.3125 C 8.28125 -11.5625 8.132812 -11.6875 7.84375 -11.6875 C 7.757812 -11.6875 7.675781 -11.679688 7.59375 -11.671875 C 7.519531 -11.660156 7.425781 -11.625 7.3125 -11.5625 L 7.203125 -11.84375 C 7.804688 -12.070312 8.320312 -12.28125 8.75 -12.46875 C 9.175781 -12.65625 9.550781 -12.832031 9.875 -13 Z M 9.875 -13 "/></g></g></g><g fill="#a08963" fill-opacity="1"><g transform="translate(146.496977, 137.813395)"><g><path d="M 3.875 -8.125 C 3.875 -7.75 3.785156 -7.28125 3.609375 -6.71875 C 3.429688 -6.164062 3.128906 -5.425781 2.703125 -4.5 C 2.429688 -3.882812 2.210938 -3.378906 2.046875 -2.984375 C 1.890625 -2.597656 1.765625 -2.289062 1.671875 -2.0625 C 1.578125 -1.832031 1.515625 -1.664062 1.484375 -1.5625 C 1.453125 -1.46875 1.4375 -1.394531 1.4375 -1.34375 C 1.4375 -1.164062 1.535156 -1.078125 1.734375 -1.078125 C 1.867188 -1.078125 2.085938 -1.144531 2.390625 -1.28125 L 2.5 -1 C 2.40625 -0.957031 2.253906 -0.890625 2.046875 -0.796875 C 1.835938 -0.710938 1.617188 -0.617188 1.390625 -0.515625 C 1.160156 -0.410156 0.925781 -0.3125 0.6875 -0.21875 C 0.457031 -0.125 0.265625 -0.0507812 0.109375 0 C 0.117188 -0.289062 0.144531 -0.5625 0.1875 -0.8125 C 0.238281 -1.0625 0.316406 -1.335938 0.421875 -1.640625 C 0.523438 -1.941406 0.660156 -2.289062 0.828125 -2.6875 C 0.992188 -3.082031 1.203125 -3.5625 1.453125 -4.125 C 1.585938 -4.40625 1.71875 -4.679688 1.84375 -4.953125 C 1.96875 -5.234375 2.078125 -5.492188 2.171875 -5.734375 C 2.265625 -5.984375 2.34375 -6.195312 2.40625 -6.375 C 2.46875 -6.550781 2.5 -6.679688 2.5 -6.765625 C 2.5 -6.941406 2.414062 -7.03125 2.25 -7.03125 C 2.1875 -7.03125 2.109375 -7.019531 2.015625 -7 C 1.929688 -6.976562 1.84375 -6.945312 1.75 -6.90625 C 1.65625 -6.875 1.570312 -6.84375 1.5 -6.8125 C 1.4375 -6.78125 1.390625 -6.757812 1.359375 -6.75 L 1.25 -7.0625 C 1.519531 -7.144531 1.753906 -7.222656 1.953125 -7.296875 C 2.160156 -7.378906 2.359375 -7.457031 2.546875 -7.53125 C 2.742188 -7.601562 2.941406 -7.6875 3.140625 -7.78125 C 3.347656 -7.882812 3.59375 -8 3.875 -8.125 Z M 4.859375 -10.109375 C 4.859375 -9.941406 4.796875 -9.785156 4.671875 -9.640625 C 4.554688 -9.503906 4.414062 -9.4375 4.25 -9.4375 C 4.125 -9.4375 4.019531 -9.476562 3.9375 -9.5625 C 3.851562 -9.644531 3.8125 -9.753906 3.8125 -9.890625 C 3.8125 -10.054688 3.875 -10.203125 4 -10.328125 C 4.125 -10.453125 4.269531 -10.515625 4.4375 -10.515625 C 4.5625 -10.515625 4.660156 -10.472656 4.734375 -10.390625 C 4.816406 -10.316406 4.859375 -10.222656 4.859375 -10.109375 Z M 4.859375 -10.109375 "/></g></g></g><g fill="#a08963" fill-opacity="1"><g transform="translate(150.572097, 137.813395)"><g><path d="M 6.5 -1.171875 C 6.175781 -0.929688 5.773438 -0.710938 5.296875 -0.515625 C 4.828125 -0.316406 4.320312 -0.144531 3.78125 0 C 3.800781 -0.226562 3.851562 -0.492188 3.9375 -0.796875 C 4.03125 -1.097656 4.132812 -1.40625 4.25 -1.71875 C 4.363281 -2.03125 4.484375 -2.328125 4.609375 -2.609375 C 4.734375 -2.890625 4.832031 -3.117188 4.90625 -3.296875 C 4.476562 -2.785156 4.078125 -2.351562 3.703125 -2 C 3.335938 -1.65625 2.945312 -1.328125 2.53125 -1.015625 C 2.070312 -0.671875 1.648438 -0.410156 1.265625 -0.234375 C 0.878906 -0.0546875 0.566406 0.03125 0.328125 0.03125 C -0.0976562 0.03125 -0.3125 -0.25 -0.3125 -0.8125 C -0.3125 -1.1875 -0.21875 -1.628906 -0.03125 -2.140625 C 0.144531 -2.660156 0.390625 -3.140625 0.703125 -3.578125 C 1.023438 -4.054688 1.40625 -4.503906 1.84375 -4.921875 C 2.28125 -5.335938 2.75 -5.71875 3.25 -6.0625 C 3.757812 -6.40625 4.296875 -6.703125 4.859375 -6.953125 C 5.421875 -7.203125 5.992188 -7.40625 6.578125 -7.5625 C 6.878906 -7.644531 7.207031 -7.707031 7.5625 -7.75 C 7.914062 -7.800781 8.222656 -7.828125 8.484375 -7.828125 C 8.691406 -7.828125 8.796875 -7.753906 8.796875 -7.609375 C 8.796875 -7.546875 8.769531 -7.453125 8.71875 -7.328125 C 8.675781 -7.210938 8.613281 -7.0625 8.53125 -6.875 C 8.289062 -6.9375 8.070312 -6.972656 7.875 -6.984375 C 7.675781 -6.992188 7.445312 -7 7.1875 -7 C 6.28125 -7 5.460938 -6.84375 4.734375 -6.53125 C 4.003906 -6.21875 3.296875 -5.734375 2.609375 -5.078125 C 2.015625 -4.515625 1.554688 -3.921875 1.234375 -3.296875 C 0.921875 -2.679688 0.765625 -2.09375 0.765625 -1.53125 C 0.765625 -1.289062 0.8125 -1.097656 0.90625 -0.953125 C 1 -0.804688 1.128906 -0.734375 1.296875 -0.734375 C 1.472656 -0.734375 1.695312 -0.816406 1.96875 -0.984375 C 2.238281 -1.148438 2.519531 -1.375 2.8125 -1.65625 C 3.101562 -1.945312 3.394531 -2.28125 3.6875 -2.65625 C 3.988281 -3.03125 4.257812 -3.421875 4.5 -3.828125 C 4.78125 -4.304688 5 -4.75 5.15625 -5.15625 C 5.320312 -5.570312 5.460938 -6.046875 5.578125 -6.578125 C 5.859375 -6.390625 6 -6.085938 6 -5.671875 C 6 -5.335938 5.925781 -5.003906 5.78125 -4.671875 C 5.632812 -4.347656 5.398438 -3.976562 5.078125 -3.5625 C 5.242188 -3.582031 5.394531 -3.601562 5.53125 -3.625 C 5.675781 -3.644531 5.90625 -3.710938 6.21875 -3.828125 L 5.421875 -2 C 5.328125 -1.769531 5.265625 -1.59375 5.234375 -1.46875 C 5.210938 -1.34375 5.210938 -1.242188 5.234375 -1.171875 C 5.265625 -1.109375 5.300781 -1.070312 5.34375 -1.0625 C 5.394531 -1.050781 5.4375 -1.046875 5.46875 -1.046875 C 5.539062 -1.046875 5.640625 -1.070312 5.765625 -1.125 C 5.890625 -1.175781 6.070312 -1.273438 6.3125 -1.421875 Z M 6.5 -1.171875 "/></g></g></g><g fill="#a08963" fill-opacity="1"><g transform="translate(158.16583, 137.813395)"><g><path d="M 6.46875 -1.15625 C 6.0625 -0.863281 5.640625 -0.625 5.203125 -0.4375 C 4.773438 -0.25 4.285156 -0.101562 3.734375 0 C 3.785156 -0.332031 3.875 -0.695312 4 -1.09375 C 4.132812 -1.5 4.285156 -1.914062 4.453125 -2.34375 C 4.628906 -2.769531 4.816406 -3.1875 5.015625 -3.59375 C 5.210938 -4.007812 5.40625 -4.394531 5.59375 -4.75 L 6.21875 -5.921875 C 6.34375 -6.160156 6.421875 -6.332031 6.453125 -6.4375 C 6.492188 -6.539062 6.515625 -6.628906 6.515625 -6.703125 C 6.515625 -6.867188 6.445312 -6.953125 6.3125 -6.953125 C 6.207031 -6.953125 5.957031 -6.820312 5.5625 -6.5625 C 5.164062 -6.300781 4.703125 -5.90625 4.171875 -5.375 C 3.648438 -4.84375 3.097656 -4.164062 2.515625 -3.34375 C 1.929688 -2.53125 1.398438 -1.5625 0.921875 -0.4375 C 0.722656 -0.382812 0.535156 -0.332031 0.359375 -0.28125 C 0.191406 -0.226562 -0.0507812 -0.128906 -0.375 0.015625 C -0.21875 -0.296875 -0.046875 -0.660156 0.140625 -1.078125 C 0.335938 -1.492188 0.53125 -1.925781 0.71875 -2.375 C 0.914062 -2.820312 1.109375 -3.273438 1.296875 -3.734375 C 1.484375 -4.191406 1.648438 -4.613281 1.796875 -5 C 1.941406 -5.382812 2.054688 -5.71875 2.140625 -6 C 2.234375 -6.289062 2.28125 -6.5 2.28125 -6.625 C 2.28125 -6.84375 2.191406 -6.953125 2.015625 -6.953125 C 1.953125 -6.953125 1.875 -6.941406 1.78125 -6.921875 C 1.695312 -6.898438 1.535156 -6.847656 1.296875 -6.765625 L 1.234375 -7.078125 C 1.679688 -7.203125 2.109375 -7.335938 2.515625 -7.484375 C 2.921875 -7.628906 3.335938 -7.796875 3.765625 -7.984375 C 3.816406 -7.796875 3.738281 -7.378906 3.53125 -6.734375 C 3.332031 -6.097656 2.957031 -5.171875 2.40625 -3.953125 C 3.539062 -5.265625 4.546875 -6.253906 5.421875 -6.921875 C 6.296875 -7.597656 6.984375 -7.9375 7.484375 -7.9375 C 7.785156 -7.9375 7.9375 -7.773438 7.9375 -7.453125 C 7.9375 -7.296875 7.867188 -7.050781 7.734375 -6.71875 C 7.609375 -6.394531 7.441406 -6.023438 7.234375 -5.609375 C 7.035156 -5.191406 6.816406 -4.753906 6.578125 -4.296875 C 6.347656 -3.847656 6.128906 -3.421875 5.921875 -3.015625 C 5.722656 -2.617188 5.554688 -2.265625 5.421875 -1.953125 C 5.285156 -1.640625 5.21875 -1.425781 5.21875 -1.3125 C 5.21875 -1.132812 5.300781 -1.046875 5.46875 -1.046875 C 5.550781 -1.046875 5.671875 -1.078125 5.828125 -1.140625 C 5.984375 -1.203125 6.132812 -1.289062 6.28125 -1.40625 Z M 6.46875 -1.15625 "/></g></g></g><g fill="#a08963" fill-opacity="1"><g transform="translate(166.190405, 137.813395)"><g><path d="M 5.34375 -7.484375 L 4.015625 -7.484375 C 3.921875 -7.304688 3.804688 -7.0625 3.671875 -6.75 C 3.535156 -6.4375 3.378906 -6.082031 3.203125 -5.6875 C 3.023438 -5.300781 2.84375 -4.882812 2.65625 -4.4375 C 2.46875 -3.988281 2.265625 -3.523438 2.046875 -3.046875 C 1.773438 -2.441406 1.59375 -2.007812 1.5 -1.75 C 1.40625 -1.488281 1.359375 -1.289062 1.359375 -1.15625 C 1.359375 -0.851562 1.492188 -0.703125 1.765625 -0.703125 C 1.929688 -0.703125 2.132812 -0.75 2.375 -0.84375 C 2.625 -0.945312 2.882812 -1.09375 3.15625 -1.28125 L 3.296875 -1.046875 C 2.890625 -0.753906 2.453125 -0.503906 1.984375 -0.296875 C 1.523438 -0.0976562 1.132812 0 0.8125 0 C 0.332031 0 0.09375 -0.175781 0.09375 -0.53125 C 0.09375 -0.632812 0.101562 -0.734375 0.125 -0.828125 C 0.15625 -0.929688 0.203125 -1.070312 0.265625 -1.25 C 0.296875 -1.351562 0.375 -1.554688 0.5 -1.859375 C 0.625 -2.160156 0.773438 -2.519531 0.953125 -2.9375 C 1.128906 -3.363281 1.316406 -3.8125 1.515625 -4.28125 C 1.722656 -4.75 1.921875 -5.195312 2.109375 -5.625 C 2.296875 -6.0625 2.460938 -6.445312 2.609375 -6.78125 C 2.765625 -7.113281 2.867188 -7.347656 2.921875 -7.484375 L 1.6875 -7.484375 L 1.828125 -7.78125 C 2.128906 -7.78125 2.367188 -7.789062 2.546875 -7.8125 C 2.722656 -7.84375 2.878906 -7.914062 3.015625 -8.03125 C 3.160156 -8.144531 3.289062 -8.316406 3.40625 -8.546875 C 3.519531 -8.773438 3.65625 -9.082031 3.8125 -9.46875 C 3.96875 -9.445312 4.132812 -9.441406 4.3125 -9.453125 C 4.488281 -9.472656 4.679688 -9.519531 4.890625 -9.59375 L 4.140625 -7.78125 L 5.5 -7.78125 Z M 5.34375 -7.484375 "/></g></g></g><g fill="#a08963" fill-opacity="1"><g transform="translate(170.480946, 137.813395)"><g/></g></g><g fill="#a08963" fill-opacity="1"><g transform="translate(173.963652, 137.813395)"><g><path d="M 8.203125 -7.859375 C 8.054688 -7.628906 7.875 -7.289062 7.65625 -6.84375 C 7.4375 -6.40625 7.207031 -5.921875 6.96875 -5.390625 L 6.671875 -5.5 C 6.691406 -5.539062 6.707031 -5.59375 6.71875 -5.65625 C 6.738281 -5.726562 6.765625 -5.816406 6.796875 -5.921875 C 6.828125 -6.035156 6.867188 -6.175781 6.921875 -6.34375 C 6.984375 -6.507812 7.070312 -6.726562 7.1875 -7 C 7.019531 -7.007812 6.878906 -7.015625 6.765625 -7.015625 C 6.648438 -7.023438 6.492188 -7.03125 6.296875 -7.03125 C 5.492188 -7.03125 4.800781 -6.9375 4.21875 -6.75 C 3.632812 -6.5625 3.148438 -6.320312 2.765625 -6.03125 C 2.390625 -5.738281 2.113281 -5.4375 1.9375 -5.125 C 1.757812 -4.8125 1.671875 -4.523438 1.671875 -4.265625 C 1.671875 -3.722656 1.941406 -3.453125 2.484375 -3.453125 C 3.109375 -3.453125 3.71875 -3.851562 4.3125 -4.65625 C 4.5 -4.945312 4.644531 -5.222656 4.75 -5.484375 C 4.851562 -5.753906 4.953125 -6.117188 5.046875 -6.578125 C 5.328125 -6.390625 5.46875 -6.128906 5.46875 -5.796875 C 5.46875 -5.484375 5.332031 -5.140625 5.0625 -4.765625 C 4.789062 -4.398438 4.398438 -4.046875 3.890625 -3.703125 C 3.242188 -3.234375 2.738281 -2.867188 2.375 -2.609375 C 2.007812 -2.347656 1.738281 -2.144531 1.5625 -2 C 1.394531 -1.863281 1.289062 -1.765625 1.25 -1.703125 C 1.207031 -1.640625 1.1875 -1.585938 1.1875 -1.546875 C 1.1875 -1.453125 1.238281 -1.367188 1.34375 -1.296875 C 1.457031 -1.234375 1.6875 -1.128906 2.03125 -0.984375 C 2.15625 -0.921875 2.378906 -0.832031 2.703125 -0.71875 C 3.035156 -0.613281 3.390625 -0.484375 3.765625 -0.328125 C 4.148438 -0.179688 4.535156 -0.0234375 4.921875 0.140625 C 5.304688 0.304688 5.632812 0.472656 5.90625 0.640625 C 6.25 0.859375 6.519531 1.101562 6.71875 1.375 C 6.914062 1.65625 7.015625 1.945312 7.015625 2.25 C 7.015625 2.675781 6.863281 3.078125 6.5625 3.453125 C 6.269531 3.828125 5.863281 4.15625 5.34375 4.4375 C 4.832031 4.71875 4.234375 4.941406 3.546875 5.109375 C 2.859375 5.285156 2.128906 5.375 1.359375 5.375 C 0.742188 5.375 0.1875 5.328125 -0.3125 5.234375 C -0.820312 5.140625 -1.253906 5.007812 -1.609375 4.84375 C -1.972656 4.675781 -2.25 4.472656 -2.4375 4.234375 C -2.632812 4.003906 -2.734375 3.75 -2.734375 3.46875 C -2.734375 2.738281 -2.304688 2.101562 -1.453125 1.5625 C -0.597656 1.03125 0.566406 0.566406 2.046875 0.171875 C 2.035156 0.171875 1.945312 0.140625 1.78125 0.078125 C 1.613281 0.0234375 1.394531 -0.0507812 1.125 -0.15625 C 0.863281 -0.257812 0.566406 -0.363281 0.234375 -0.46875 C -0.0859375 -0.582031 -0.410156 -0.695312 -0.734375 -0.8125 L 1.796875 -2.578125 C 1.023438 -2.535156 0.640625 -2.800781 0.640625 -3.375 C 0.640625 -3.601562 0.691406 -3.851562 0.796875 -4.125 C 0.898438 -4.394531 1.039062 -4.660156 1.21875 -4.921875 C 1.394531 -5.191406 1.613281 -5.457031 1.875 -5.71875 C 2.144531 -5.988281 2.441406 -6.238281 2.765625 -6.46875 C 3.472656 -6.96875 4.210938 -7.332031 4.984375 -7.5625 C 5.753906 -7.800781 6.609375 -7.921875 7.546875 -7.921875 C 7.679688 -7.921875 7.789062 -7.921875 7.875 -7.921875 C 7.957031 -7.921875 8.066406 -7.898438 8.203125 -7.859375 Z M 2.96875 0.5 C 2.539062 0.519531 2.148438 0.566406 1.796875 0.640625 C 1.453125 0.710938 1.050781 0.820312 0.59375 0.96875 C -0.914062 1.457031 -1.671875 2.148438 -1.671875 3.046875 C -1.671875 3.328125 -1.582031 3.578125 -1.40625 3.796875 C -1.238281 4.023438 -1 4.222656 -0.6875 4.390625 C -0.375 4.566406 0 4.695312 0.4375 4.78125 C 0.875 4.875 1.359375 4.921875 1.890625 4.921875 C 2.492188 4.921875 3.039062 4.867188 3.53125 4.765625 C 4.019531 4.660156 4.4375 4.519531 4.78125 4.34375 C 5.132812 4.164062 5.40625 3.945312 5.59375 3.6875 C 5.789062 3.425781 5.890625 3.144531 5.890625 2.84375 C 5.890625 2.6875 5.851562 2.515625 5.78125 2.328125 C 5.707031 2.148438 5.566406 1.960938 5.359375 1.765625 C 5.148438 1.566406 4.851562 1.359375 4.46875 1.140625 C 4.082031 0.929688 3.582031 0.71875 2.96875 0.5 Z M 2.96875 0.5 "/></g></g></g><g fill="#a08963" fill-opacity="1"><g transform="translate(181.090623, 137.813395)"><g><path d="M 5.734375 -13 C 5.734375 -12.769531 5.703125 -12.519531 5.640625 -12.25 C 5.585938 -11.988281 5.5 -11.679688 5.375 -11.328125 C 5.257812 -10.984375 5.101562 -10.570312 4.90625 -10.09375 C 4.707031 -9.613281 4.46875 -9.046875 4.1875 -8.390625 C 3.675781 -7.222656 3.234375 -6.179688 2.859375 -5.265625 C 2.484375 -4.359375 2.164062 -3.554688 1.90625 -2.859375 C 1.625 -2.097656 1.484375 -1.582031 1.484375 -1.3125 C 1.484375 -1.21875 1.515625 -1.128906 1.578125 -1.046875 C 1.640625 -0.972656 1.722656 -0.9375 1.828125 -0.9375 C 1.921875 -0.9375 2.039062 -0.976562 2.1875 -1.0625 C 2.332031 -1.144531 2.539062 -1.285156 2.8125 -1.484375 L 2.90625 -1.59375 L 3.09375 -1.34375 C 2.945312 -1.1875 2.796875 -1.0625 2.640625 -0.96875 C 2.492188 -0.875 2.332031 -0.75 2.15625 -0.59375 C 1.539062 -0.195312 1.109375 0 0.859375 0 C 0.671875 0 0.523438 -0.0664062 0.421875 -0.203125 C 0.328125 -0.335938 0.28125 -0.523438 0.28125 -0.765625 C 0.28125 -1.203125 0.398438 -1.742188 0.640625 -2.390625 C 0.753906 -2.703125 0.875 -3.03125 1 -3.375 C 1.132812 -3.726562 1.285156 -4.113281 1.453125 -4.53125 C 1.554688 -4.789062 1.664062 -5.054688 1.78125 -5.328125 C 1.894531 -5.597656 2.007812 -5.863281 2.125 -6.125 C 2.226562 -6.351562 2.304688 -6.539062 2.359375 -6.6875 C 2.421875 -6.832031 2.488281 -7.003906 2.5625 -7.203125 L 3.46875 -9.359375 C 3.632812 -9.773438 3.773438 -10.125 3.890625 -10.40625 C 4.015625 -10.695312 4.109375 -10.9375 4.171875 -11.125 C 4.210938 -11.269531 4.238281 -11.367188 4.25 -11.421875 C 4.257812 -11.484375 4.265625 -11.546875 4.265625 -11.609375 C 4.265625 -11.773438 4.171875 -11.859375 3.984375 -11.859375 C 3.921875 -11.859375 3.867188 -11.851562 3.828125 -11.84375 C 3.785156 -11.84375 3.671875 -11.804688 3.484375 -11.734375 C 3.460938 -11.722656 3.4375 -11.710938 3.40625 -11.703125 C 3.382812 -11.703125 3.363281 -11.695312 3.34375 -11.6875 L 3.234375 -11.953125 L 3.390625 -12.03125 C 3.710938 -12.15625 3.988281 -12.265625 4.21875 -12.359375 C 4.445312 -12.460938 4.648438 -12.550781 4.828125 -12.625 C 5.003906 -12.695312 5.160156 -12.757812 5.296875 -12.8125 C 5.441406 -12.875 5.585938 -12.9375 5.734375 -13 Z M 5.734375 -13 "/></g></g></g><g fill="#a08963" fill-opacity="1"><g transform="translate(185.022125, 137.813395)"><g><path d="M 6.859375 -6.96875 C 6.679688 -6.988281 6.523438 -7 6.390625 -7 C 6.253906 -7.007812 6.117188 -7.015625 5.984375 -7.015625 C 5.222656 -7.015625 4.539062 -6.875 3.9375 -6.59375 C 3.332031 -6.320312 2.820312 -5.914062 2.40625 -5.375 C 2.21875 -5.101562 2.035156 -4.804688 1.859375 -4.484375 C 1.679688 -4.171875 1.523438 -3.847656 1.390625 -3.515625 C 1.265625 -3.179688 1.160156 -2.859375 1.078125 -2.546875 C 1.003906 -2.234375 0.96875 -1.953125 0.96875 -1.703125 C 0.96875 -1.390625 1.054688 -1.140625 1.234375 -0.953125 C 1.421875 -0.765625 1.648438 -0.671875 1.921875 -0.671875 C 2.242188 -0.671875 2.609375 -0.820312 3.015625 -1.125 C 3.421875 -1.425781 3.816406 -1.851562 4.203125 -2.40625 C 4.546875 -2.863281 4.8125 -3.332031 5 -3.8125 C 5.195312 -4.289062 5.296875 -4.71875 5.296875 -5.09375 C 5.296875 -5.320312 5.25 -5.5 5.15625 -5.625 C 5.0625 -5.75 4.9375 -5.8125 4.78125 -5.8125 C 4.269531 -5.8125 3.785156 -5.3125 3.328125 -4.3125 C 3.285156 -4.382812 3.265625 -4.441406 3.265625 -4.484375 C 3.273438 -4.535156 3.28125 -4.59375 3.28125 -4.65625 C 3.28125 -5 3.429688 -5.3125 3.734375 -5.59375 C 4.003906 -5.875 4.285156 -6.097656 4.578125 -6.265625 C 4.867188 -6.429688 5.125 -6.515625 5.34375 -6.515625 C 5.65625 -6.515625 5.910156 -6.394531 6.109375 -6.15625 C 6.304688 -5.925781 6.40625 -5.640625 6.40625 -5.296875 C 6.40625 -4.785156 6.242188 -4.238281 5.921875 -3.65625 C 5.597656 -3.070312 5.125 -2.488281 4.5 -1.90625 C 3.84375 -1.289062 3.222656 -0.816406 2.640625 -0.484375 C 2.054688 -0.160156 1.550781 0 1.125 0 C 0.769531 0 0.46875 -0.125 0.21875 -0.375 C -0.0195312 -0.632812 -0.140625 -0.960938 -0.140625 -1.359375 C -0.140625 -1.796875 -0.0625 -2.242188 0.09375 -2.703125 C 0.257812 -3.160156 0.484375 -3.613281 0.765625 -4.0625 C 1.054688 -4.507812 1.40625 -4.941406 1.8125 -5.359375 C 2.21875 -5.773438 2.664062 -6.15625 3.15625 -6.5 C 3.4375 -6.675781 3.722656 -6.84375 4.015625 -7 C 4.316406 -7.15625 4.617188 -7.289062 4.921875 -7.40625 C 5.222656 -7.53125 5.507812 -7.625 5.78125 -7.6875 C 6.050781 -7.757812 6.300781 -7.796875 6.53125 -7.796875 C 6.832031 -7.796875 6.984375 -7.675781 6.984375 -7.4375 C 6.984375 -7.320312 6.953125 -7.207031 6.890625 -7.09375 Z M 6.859375 -6.96875 "/></g></g></g><g fill="#a08963" fill-opacity="1"><g transform="translate(191.86186, 137.813395)"><g><path d="M 10.59375 -7.609375 C 10.25 -6.578125 9.75 -5.628906 9.09375 -4.765625 C 8.445312 -3.898438 7.597656 -3.035156 6.546875 -2.171875 C 6.203125 -1.878906 5.875 -1.609375 5.5625 -1.359375 C 5.257812 -1.109375 4.992188 -0.878906 4.765625 -0.671875 C 4.535156 -0.472656 4.34375 -0.304688 4.1875 -0.171875 C 4.03125 -0.0351562 3.925781 0.0546875 3.875 0.109375 L 5.09375 -6.34375 C 5 -6.257812 4.875 -6.078125 4.71875 -5.796875 C 4.570312 -5.523438 4.390625 -5.191406 4.171875 -4.796875 C 3.960938 -4.410156 3.722656 -3.988281 3.453125 -3.53125 C 3.179688 -3.070312 2.878906 -2.613281 2.546875 -2.15625 C 2.222656 -1.707031 1.875 -1.289062 1.5 -0.90625 C 1.125 -0.519531 0.71875 -0.203125 0.28125 0.046875 C 0.601562 -0.710938 0.863281 -1.414062 1.0625 -2.0625 C 1.269531 -2.707031 1.429688 -3.285156 1.546875 -3.796875 C 1.660156 -4.304688 1.734375 -4.738281 1.765625 -5.09375 C 1.804688 -5.457031 1.828125 -5.726562 1.828125 -5.90625 C 1.828125 -6.488281 1.691406 -6.78125 1.421875 -6.78125 C 1.335938 -6.78125 1.253906 -6.757812 1.171875 -6.71875 C 1.085938 -6.675781 0.96875 -6.59375 0.8125 -6.46875 L 0.671875 -6.734375 C 1.015625 -6.960938 1.296875 -7.15625 1.515625 -7.3125 C 1.742188 -7.476562 1.960938 -7.644531 2.171875 -7.8125 C 2.703125 -7.5625 2.96875 -7.085938 2.96875 -6.390625 C 2.96875 -6.160156 2.953125 -5.914062 2.921875 -5.65625 C 2.890625 -5.394531 2.832031 -5.085938 2.75 -4.734375 C 2.664062 -4.378906 2.550781 -3.96875 2.40625 -3.5 C 2.269531 -3.03125 2.097656 -2.472656 1.890625 -1.828125 C 1.972656 -1.960938 2.050781 -2.085938 2.125 -2.203125 C 2.207031 -2.316406 2.300781 -2.457031 2.40625 -2.625 C 2.507812 -2.789062 2.632812 -3.007812 2.78125 -3.28125 C 2.9375 -3.550781 3.140625 -3.910156 3.390625 -4.359375 C 3.679688 -4.878906 3.957031 -5.328125 4.21875 -5.703125 C 4.476562 -6.085938 4.726562 -6.414062 4.96875 -6.6875 C 5.21875 -6.96875 5.457031 -7.203125 5.6875 -7.390625 C 5.925781 -7.585938 6.164062 -7.757812 6.40625 -7.90625 L 5.046875 -1.4375 C 5.410156 -1.78125 5.820312 -2.125 6.28125 -2.46875 C 6.738281 -2.820312 7.179688 -3.195312 7.609375 -3.59375 C 8.046875 -3.988281 8.4375 -4.429688 8.78125 -4.921875 C 9.125 -5.410156 9.375 -5.972656 9.53125 -6.609375 C 9.007812 -6.609375 8.597656 -6.609375 8.296875 -6.609375 C 8.003906 -6.609375 7.773438 -6.59375 7.609375 -6.5625 C 7.453125 -6.539062 7.34375 -6.5 7.28125 -6.4375 C 7.21875 -6.375 7.15625 -6.273438 7.09375 -6.140625 L 6.796875 -5.578125 L 6.484375 -5.578125 L 7.359375 -7.609375 Z M 10.59375 -7.609375 "/></g></g></g><g fill="#a08963" fill-opacity="1"><g transform="translate(201.843215, 137.813395)"><g><path d="M 0.796875 -0.671875 C 0.796875 -0.492188 0.726562 -0.335938 0.59375 -0.203125 C 0.46875 -0.0664062 0.328125 0 0.171875 0 C 0.0351562 0 -0.0703125 -0.0390625 -0.15625 -0.125 C -0.238281 -0.207031 -0.28125 -0.316406 -0.28125 -0.453125 C -0.28125 -0.617188 -0.21875 -0.765625 -0.09375 -0.890625 C 0.03125 -1.015625 0.1875 -1.078125 0.375 -1.078125 C 0.476562 -1.078125 0.570312 -1.035156 0.65625 -0.953125 C 0.75 -0.878906 0.796875 -0.785156 0.796875 -0.671875 Z M 0.796875 -0.671875 "/></g></g></g></svg>