<svg xmlns="http://www.w3.org/2000/svg" xmlns:xlink="http://www.w3.org/1999/xlink" width="73" zoomAndPan="magnify" viewBox="0 0 54.75 54.75" height="73" preserveAspectRatio="xMidYMid meet" version="1.0"><defs><filter x="0%" y="0%" width="100%" height="100%" id="05b54c8b07"><feColorMatrix values="0 0 0 0 1 0 0 0 0 1 0 0 0 0 1 0 0 0 1 0" color-interpolation-filters="sRGB"/></filter><clipPath id="7877b0761a"><path d="M 0 0 L 54.5 0 L 54.5 54.5 L 0 54.5 Z M 0 0 " clip-rule="nonzero"/></clipPath><mask id="57fe146d92"><g filter="url(#05b54c8b07)"><rect x="-5.475" width="65.7" fill="#000000" y="-5.475" height="65.7" fill-opacity="0.8"/></g></mask><clipPath id="b74563b96d"><path d="M 0 0 L 54.5 0 L 54.5 54.5 L 0 54.5 Z M 0 0 " clip-rule="nonzero"/></clipPath><clipPath id="0e8bf991e8"><path d="M 2.238281 0 L 52.261719 0 C 53.5 0 54.5 1.003906 54.5 2.238281 L 54.5 52.261719 C 54.5 53.5 53.5 54.5 52.261719 54.5 L 2.238281 54.5 C 1.003906 54.5 0 53.5 0 52.261719 L 0 2.238281 C 0 1.003906 1.003906 0 2.238281 0 Z M 2.238281 0 " clip-rule="nonzero"/></clipPath><clipPath id="042a936f58"><rect x="0" width="55" y="0" height="55"/></clipPath><mask id="1b3f89e714"><g filter="url(#05b54c8b07)"><rect x="-5.475" width="65.7" fill="#000000" y="-5.475" height="65.7" fill-opacity="0.15"/></g></mask><clipPath id="cd3d7b0333"><path d="M 0 0 L 54.5 0 L 54.5 54.5 L 0 54.5 Z M 0 0 " clip-rule="nonzero"/></clipPath><clipPath id="911364fd4c"><path d="M 2.238281 0 L 52.261719 0 C 53.5 0 54.5 1.003906 54.5 2.238281 L 54.5 52.261719 C 54.5 53.5 53.5 54.5 52.261719 54.5 L 2.238281 54.5 C 1.003906 54.5 0 53.5 0 52.261719 L 0 2.238281 C 0 1.003906 1.003906 0 2.238281 0 Z M 2.238281 0 " clip-rule="nonzero"/></clipPath><clipPath id="ac4b79e609"><rect x="0" width="55" y="0" height="55"/></clipPath><clipPath id="896f7e87df"><path d="M 12 10.726562 L 34 10.726562 L 34 20 L 12 20 Z M 12 10.726562 " clip-rule="nonzero"/></clipPath><clipPath id="5ab9a8272a"><path d="M 21 14 L 42.824219 14 L 42.824219 23 L 21 23 Z M 21 14 " clip-rule="nonzero"/></clipPath><clipPath id="044e3db518"><path d="M 11.46875 18 L 27 18 L 27 43.574219 L 11.46875 43.574219 Z M 11.46875 18 " clip-rule="nonzero"/></clipPath><clipPath id="0dc043c807"><path d="M 28 18 L 42.824219 18 L 42.824219 43.574219 L 28 43.574219 Z M 28 18 " clip-rule="nonzero"/></clipPath></defs><g clip-path="url(#7877b0761a)"><path fill="#ffffff" d="M 0 0 L 54.5 0 L 54.5 54.5 L 0 54.5 Z M 0 0 " fill-opacity="1" fill-rule="nonzero"/><path fill="#ffffff" d="M 0 0 L 54.5 0 L 54.5 54.5 L 0 54.5 Z M 0 0 " fill-opacity="1" fill-rule="nonzero"/><g mask="url(#57fe146d92)"><g transform="matrix(1, 0, 0, 1, 0, -0.000000000000008818)"><g clip-path="url(#042a936f58)"><g clip-path="url(#b74563b96d)"><g clip-path="url(#0e8bf991e8)"><path fill="#ffffff" d="M 0 0 L 54.5 0 L 54.5 54.5 L 0 54.5 Z M 0 0 " fill-opacity="1" fill-rule="nonzero"/></g></g></g></g></g><g mask="url(#1b3f89e714)"><g transform="matrix(1, 0, 0, 1, 0, -0.000000000000008818)"><g clip-path="url(#ac4b79e609)"><g clip-path="url(#cd3d7b0333)"><g clip-path="url(#911364fd4c)"><path stroke-linecap="butt" transform="matrix(0.746591, 0, 0, 0.746591, 0, 0.00000219091)" fill="none" stroke-linejoin="miter" d="M 2.998003 -0.00000293455 L 70.000483 -0.00000293455 C 71.659064 -0.00000293455 72.998486 1.344651 72.998486 2.998 L 72.998486 70.00048 C 72.998486 71.659061 71.659064 72.998483 70.000483 72.998483 L 2.998003 72.998483 C 1.344654 72.998483 0 71.659061 0 70.00048 L 0 2.998 C 0 1.344651 1.344654 -0.00000293455 2.998003 -0.00000293455 Z M 2.998003 -0.00000293455 " stroke="#706d54" stroke-width="2" stroke-opacity="1" stroke-miterlimit="4"/></g></g></g></g></g></g><g clip-path="url(#896f7e87df)"><path fill="#706d54" d="M 19.132812 19.539062 L 33.65625 13.3125 L 27.640625 10.839844 C 27.386719 10.738281 27.105469 10.738281 26.851562 10.839844 L 12.40625 16.777344 Z M 19.132812 19.539062 " fill-opacity="1" fill-rule="nonzero"/></g><g clip-path="url(#5ab9a8272a)"><path fill="#706d54" d="M 36.359375 14.421875 L 21.832031 20.648438 L 27.246094 22.871094 L 42.085938 16.777344 Z M 36.359375 14.421875 " fill-opacity="1" fill-rule="nonzero"/></g><g clip-path="url(#044e3db518)"><path fill="#706d54" d="M 26.203125 24.699219 L 20.324219 22.285156 L 20.324219 26.855469 C 20.324219 27.433594 19.859375 27.898438 19.28125 27.898438 C 18.707031 27.898438 18.238281 27.433594 18.238281 26.855469 L 18.238281 21.425781 L 11.46875 18.644531 L 11.46875 37.011719 C 11.46875 37.433594 11.726562 37.8125 12.117188 37.976562 L 26.203125 43.761719 Z M 26.203125 24.699219 " fill-opacity="1" fill-rule="nonzero"/></g><g clip-path="url(#0dc043c807)"><path fill="#706d54" d="M 28.289062 24.699219 L 28.289062 43.761719 L 42.375 37.976562 C 42.765625 37.8125 43.023438 37.433594 43.023438 37.011719 L 43.023438 18.644531 Z M 28.289062 24.699219 " fill-opacity="1" fill-rule="nonzero"/></g></svg>