<svg xmlns="http://www.w3.org/2000/svg" xmlns:xlink="http://www.w3.org/1999/xlink" width="40" zoomAndPan="magnify" viewBox="0 0 30 30.000001" height="40" preserveAspectRatio="xMidYMid meet" version="1.0"><defs><clipPath id="0cd83701d6"><path d="M 3.769531 2.902344 L 27 2.902344 L 27 14 L 3.769531 14 Z M 3.769531 2.902344 " clip-rule="nonzero"/></clipPath><clipPath id="48de5e2f7f"><path d="M 3.769531 8 L 16 8 L 16 26.128906 L 3.769531 26.128906 Z M 3.769531 8 " clip-rule="nonzero"/></clipPath><clipPath id="0f3b0700f0"><path d="M 15 8 L 27 8 L 27 26.128906 L 15 26.128906 Z M 15 8 " clip-rule="nonzero"/></clipPath><clipPath id="a55a0fcfb1"><path d="M 18 13 L 28.445312 13 L 28.445312 24 L 18 24 Z M 18 13 " clip-rule="nonzero"/></clipPath></defs><g clip-path="url(#0cd83701d6)"><path fill="#aad7f3" d="M 26.371094 8.351562 L 15.21875 2.929688 C 15.191406 2.902344 15.164062 2.902344 15.109375 2.929688 L 3.957031 8.324219 C 3.929688 8.351562 3.902344 8.378906 3.902344 8.433594 C 3.902344 8.488281 3.929688 8.515625 3.957031 8.542969 L 15.109375 13.964844 C 15.136719 13.964844 15.136719 13.964844 15.164062 13.964844 C 15.191406 13.964844 15.191406 13.964844 15.21875 13.964844 L 26.371094 8.570312 C 26.398438 8.542969 26.425781 8.515625 26.425781 8.460938 C 26.425781 8.40625 26.398438 8.378906 26.371094 8.351562 Z M 26.371094 8.351562 " fill-opacity="1" fill-rule="nonzero"/></g><g clip-path="url(#48de5e2f7f)"><path fill="#5cb3e4" d="M 15.136719 13.773438 L 4.066406 8.351562 C 4.039062 8.324219 3.984375 8.324219 3.957031 8.351562 C 3.929688 8.378906 3.902344 8.40625 3.902344 8.460938 L 3.902344 20.570312 C 3.902344 20.625 3.929688 20.652344 3.957031 20.679688 L 15.03125 26.101562 C 15.058594 26.101562 15.058594 26.101562 15.082031 26.101562 C 15.109375 26.101562 15.136719 26.101562 15.136719 26.074219 C 15.164062 26.046875 15.191406 26.019531 15.191406 25.964844 L 15.191406 13.855469 C 15.191406 13.828125 15.191406 13.773438 15.136719 13.773438 Z M 15.136719 13.773438 " fill-opacity="1" fill-rule="nonzero"/></g><g clip-path="url(#0f3b0700f0)"><path fill="#d4ecfa" d="M 26.371094 8.351562 C 26.34375 8.324219 26.292969 8.324219 26.265625 8.351562 L 15.109375 13.773438 C 15.082031 13.800781 15.058594 13.828125 15.058594 13.882812 L 15.058594 25.992188 C 15.058594 26.019531 15.082031 26.074219 15.109375 26.101562 C 15.136719 26.101562 15.136719 26.128906 15.164062 26.128906 C 15.191406 26.128906 15.191406 26.128906 15.21875 26.128906 L 26.371094 20.707031 C 26.398438 20.679688 26.425781 20.652344 26.425781 20.597656 L 26.425781 8.488281 C 26.425781 8.40625 26.398438 8.378906 26.371094 8.351562 Z M 26.371094 8.351562 " fill-opacity="1" fill-rule="nonzero"/></g><path fill="#ffffff" d="M 7.203125 16.359375 L 7.203125 9.976562 L 13.339844 6.976562 L 17.890625 9.203125 L 11.730469 12.175781 L 11.730469 18.589844 L 9.25 15.203125 Z M 7.203125 16.359375 " fill-opacity="1" fill-rule="nonzero"/><path fill="#ffffff" d="M 17.429688 22.578125 C 17.265625 22.578125 17.128906 22.496094 17.046875 22.332031 C 16.9375 22.109375 17.046875 21.863281 17.238281 21.753906 L 21.738281 19.578125 C 21.957031 19.46875 22.199219 19.578125 22.308594 19.773438 C 22.417969 19.992188 22.308594 20.238281 22.117188 20.351562 L 17.621094 22.523438 C 17.566406 22.578125 17.511719 22.578125 17.429688 22.578125 Z M 17.429688 22.578125 " fill-opacity="1" fill-rule="nonzero"/><path fill="#ffffff" d="M 17.429688 20.265625 C 17.265625 20.265625 17.128906 20.183594 17.046875 20.019531 C 16.9375 19.800781 17.046875 19.550781 17.238281 19.441406 L 19.636719 18.285156 C 19.855469 18.175781 20.101562 18.285156 20.210938 18.480469 C 20.320312 18.699219 20.210938 18.945312 20.019531 19.058594 L 17.621094 20.210938 C 17.566406 20.265625 17.511719 20.265625 17.429688 20.265625 Z M 17.429688 20.265625 " fill-opacity="1" fill-rule="nonzero"/><g clip-path="url(#a55a0fcfb1)"><path fill="#5cb3e4" d="M 23.484375 13.964844 C 20.835938 13.964844 18.65625 16.140625 18.65625 18.835938 C 18.65625 21.507812 20.808594 23.707031 23.484375 23.707031 C 26.128906 23.707031 28.308594 21.535156 28.308594 18.835938 C 28.308594 16.140625 26.15625 13.964844 23.484375 13.964844 Z M 23.484375 13.964844 " fill-opacity="1" fill-rule="nonzero"/></g><path fill="#ffffff" d="M 23.183594 20.488281 C 23.074219 20.488281 22.9375 20.433594 22.855469 20.351562 L 21.601562 19.113281 C 21.410156 18.945312 21.410156 18.644531 21.601562 18.453125 C 21.765625 18.257812 22.066406 18.257812 22.253906 18.453125 L 23.15625 19.359375 L 25.308594 16.882812 C 25.472656 16.691406 25.773438 16.664062 25.964844 16.828125 C 26.15625 16.992188 26.183594 17.296875 26.019531 17.488281 L 23.535156 20.324219 C 23.457031 20.433594 23.320312 20.488281 23.183594 20.488281 Z M 23.183594 20.488281 " fill-opacity="1" fill-rule="nonzero"/></svg>