<svg xmlns="http://www.w3.org/2000/svg" xmlns:xlink="http://www.w3.org/1999/xlink" width="613" zoomAndPan="magnify" viewBox="0 0 459.75 83.249999" height="111" preserveAspectRatio="xMidYMid meet" version="1.0"><defs><g/><clipPath id="1f790665be"><path d="M 439.953125 50.988281 L 456.832031 50.988281 L 456.832031 67.863281 L 439.953125 67.863281 Z M 439.953125 50.988281 " clip-rule="nonzero"/></clipPath><clipPath id="63699e19c2"><path d="M 448.390625 50.988281 C 443.730469 50.988281 439.953125 54.765625 439.953125 59.425781 C 439.953125 64.085938 443.730469 67.863281 448.390625 67.863281 C 453.050781 67.863281 456.832031 64.085938 456.832031 59.425781 C 456.832031 54.765625 453.050781 50.988281 448.390625 50.988281 Z M 448.390625 50.988281 " clip-rule="nonzero"/></clipPath></defs><g fill="#a1e3f9" fill-opacity="1"><g transform="translate(1.928576, 66.550441)"><g><path d="M 3.484375 -53.34375 C 3.484375 -54.945312 3.289062 -56.5 2.90625 -58 C 2.53125 -59.5 1.984375 -60.566406 1.265625 -61.203125 L 31.140625 -61.203125 C 33.296875 -61.203125 35.410156 -60.863281 37.484375 -60.1875 C 39.554688 -59.507812 41.414062 -58.515625 43.0625 -57.203125 C 44.707031 -55.890625 46.015625 -54.289062 46.984375 -52.40625 C 47.960938 -50.53125 48.453125 -48.390625 48.453125 -45.984375 C 48.453125 -42.847656 47.59375 -40.085938 45.875 -37.703125 C 44.164062 -35.316406 41.914062 -33.65625 39.125 -32.71875 C 40.519531 -32.71875 41.957031 -32.453125 43.4375 -31.921875 C 44.914062 -31.398438 46.300781 -30.546875 47.59375 -29.359375 C 48.882812 -28.179688 49.929688 -26.640625 50.734375 -24.734375 C 51.535156 -22.828125 51.9375 -20.546875 51.9375 -17.890625 C 51.9375 -14.796875 51.113281 -11.882812 49.46875 -9.15625 C 47.820312 -6.4375 45.296875 -4.226562 41.890625 -2.53125 C 38.484375 -0.84375 34.179688 0 28.984375 0 L 1.265625 0 C 1.984375 -0.632812 2.53125 -1.710938 2.90625 -3.234375 C 3.289062 -4.753906 3.484375 -6.296875 3.484375 -7.859375 Z M 28.671875 -26.515625 L 17.765625 -26.515625 L 17.765625 -11.921875 L 28.671875 -11.921875 C 31.796875 -11.921875 34.078125 -12.617188 35.515625 -14.015625 C 36.953125 -15.410156 37.671875 -17.144531 37.671875 -19.21875 C 37.671875 -21.332031 36.953125 -23.078125 35.515625 -24.453125 C 34.078125 -25.828125 31.796875 -26.515625 28.671875 -26.515625 Z M 17.765625 -49.28125 L 17.765625 -37.859375 L 27.90625 -37.859375 C 29.632812 -37.859375 31.082031 -38.414062 32.25 -39.53125 C 33.414062 -40.65625 34 -42.003906 34 -43.578125 C 34 -45.140625 33.414062 -46.476562 32.25 -47.59375 C 31.082031 -48.71875 29.632812 -49.28125 27.90625 -49.28125 Z M 17.765625 -49.28125 "/></g></g></g><g fill="#a1e3f9" fill-opacity="1"><g transform="translate(55.141876, 66.550441)"><g><path d="M 6.65625 0 C 5.644531 -3 4.8125 -5.820312 4.15625 -8.46875 C 3.5 -11.113281 3.007812 -13.828125 2.6875 -16.609375 C 2.375 -19.398438 2.21875 -22.507812 2.21875 -25.9375 C 2.21875 -29.40625 2.660156 -32.882812 3.546875 -36.375 C 4.441406 -39.863281 5.765625 -43.148438 7.515625 -46.234375 C 9.265625 -49.316406 11.421875 -52.050781 13.984375 -54.4375 C 16.546875 -56.832031 19.515625 -58.71875 22.890625 -60.09375 C 26.273438 -61.46875 30.019531 -62.15625 34.125 -62.15625 C 36.113281 -62.15625 38.054688 -61.929688 39.953125 -61.484375 C 41.859375 -61.046875 43.550781 -60.398438 45.03125 -59.546875 C 46.507812 -58.703125 47.546875 -57.710938 48.140625 -56.578125 L 48.140625 -7.921875 C 48.140625 -6.359375 48.328125 -4.804688 48.703125 -3.265625 C 49.085938 -1.722656 49.640625 -0.632812 50.359375 0 L 31.640625 0 C 32.359375 -0.632812 32.910156 -1.710938 33.296875 -3.234375 C 33.679688 -4.753906 33.875 -6.296875 33.875 -7.859375 L 33.875 -18.265625 L 16.875 -18.265625 C 17.332031 -14.671875 18.175781 -11.382812 19.40625 -8.40625 C 20.632812 -5.425781 22.242188 -2.625 24.234375 0 Z M 16.9375 -30.3125 L 33.875 -30.3125 L 33.9375 -49.09375 C 31.144531 -49.09375 28.753906 -48.519531 26.765625 -47.375 C 24.773438 -46.226562 23.101562 -44.710938 21.75 -42.828125 C 20.394531 -40.953125 19.335938 -38.925781 18.578125 -36.75 C 17.816406 -34.570312 17.269531 -32.425781 16.9375 -30.3125 Z M 16.9375 -30.3125 "/></g></g></g><g fill="#a1e3f9" fill-opacity="1"><g transform="translate(106.135316, 66.550441)"><g><path d="M 3.484375 -53.34375 C 3.484375 -54.945312 3.289062 -56.5 2.90625 -58 C 2.53125 -59.5 1.984375 -60.566406 1.265625 -61.203125 L 31.140625 -61.203125 C 33.296875 -61.203125 35.410156 -60.863281 37.484375 -60.1875 C 39.554688 -59.507812 41.414062 -58.515625 43.0625 -57.203125 C 44.707031 -55.890625 46.015625 -54.289062 46.984375 -52.40625 C 47.960938 -50.53125 48.453125 -48.390625 48.453125 -45.984375 C 48.453125 -42.847656 47.59375 -40.085938 45.875 -37.703125 C 44.164062 -35.316406 41.914062 -33.65625 39.125 -32.71875 C 40.519531 -32.71875 41.957031 -32.453125 43.4375 -31.921875 C 44.914062 -31.398438 46.300781 -30.546875 47.59375 -29.359375 C 48.882812 -28.179688 49.929688 -26.640625 50.734375 -24.734375 C 51.535156 -22.828125 51.9375 -20.546875 51.9375 -17.890625 C 51.9375 -14.796875 51.113281 -11.882812 49.46875 -9.15625 C 47.820312 -6.4375 45.296875 -4.226562 41.890625 -2.53125 C 38.484375 -0.84375 34.179688 0 28.984375 0 L 1.265625 0 C 1.984375 -0.632812 2.53125 -1.710938 2.90625 -3.234375 C 3.289062 -4.753906 3.484375 -6.296875 3.484375 -7.859375 Z M 28.671875 -26.515625 L 17.765625 -26.515625 L 17.765625 -11.921875 L 28.671875 -11.921875 C 31.796875 -11.921875 34.078125 -12.617188 35.515625 -14.015625 C 36.953125 -15.410156 37.671875 -17.144531 37.671875 -19.21875 C 37.671875 -21.332031 36.953125 -23.078125 35.515625 -24.453125 C 34.078125 -25.828125 31.796875 -26.515625 28.671875 -26.515625 Z M 17.765625 -49.28125 L 17.765625 -37.859375 L 27.90625 -37.859375 C 29.632812 -37.859375 31.082031 -38.414062 32.25 -39.53125 C 33.414062 -40.65625 34 -42.003906 34 -43.578125 C 34 -45.140625 33.414062 -46.476562 32.25 -47.59375 C 31.082031 -48.71875 29.632812 -49.28125 27.90625 -49.28125 Z M 17.765625 -49.28125 "/></g></g></g><g fill="#a1e3f9" fill-opacity="1"><g transform="translate(150.151834, 66.550441)"><g><path d="M 0.640625 -61.203125 L 23.65625 -61.203125 C 22.894531 -60.273438 22.40625 -59.40625 22.1875 -58.59375 C 21.976562 -57.789062 21.875 -56.96875 21.875 -56.125 C 21.875 -54.90625 22.097656 -53.394531 22.546875 -51.59375 C 22.992188 -49.789062 23.550781 -47.894531 24.21875 -45.90625 C 24.894531 -43.925781 25.582031 -42.003906 26.28125 -40.140625 C 26.976562 -38.285156 27.601562 -36.679688 28.15625 -35.328125 C 28.664062 -36.679688 29.28125 -38.265625 30 -40.078125 C 30.71875 -41.898438 31.40625 -43.800781 32.0625 -45.78125 C 32.71875 -47.769531 33.265625 -49.660156 33.703125 -51.453125 C 34.148438 -53.253906 34.375 -54.769531 34.375 -56 C 34.375 -56.84375 34.265625 -57.664062 34.046875 -58.46875 C 33.835938 -59.28125 33.351562 -60.148438 32.59375 -61.078125 L 55.625 -61.078125 C 54.5625 -60.398438 53.628906 -59.394531 52.828125 -58.0625 C 52.023438 -56.726562 51.203125 -55.21875 50.359375 -53.53125 C 48.710938 -50.269531 47.253906 -47.335938 45.984375 -44.734375 C 44.710938 -42.140625 43.535156 -39.664062 42.453125 -37.3125 C 41.378906 -34.96875 40.269531 -32.5625 39.125 -30.09375 C 37.988281 -27.625 36.703125 -24.863281 35.265625 -21.8125 L 35.265625 -7.859375 C 35.265625 -6.296875 35.453125 -4.753906 35.828125 -3.234375 C 36.210938 -1.710938 36.765625 -0.632812 37.484375 0 L 18.765625 0 C 19.484375 -0.632812 20.035156 -1.722656 20.421875 -3.265625 C 20.804688 -4.804688 21 -6.359375 21 -7.921875 L 21 -21.9375 C 19.5625 -24.988281 18.269531 -27.75 17.125 -30.21875 C 15.976562 -32.695312 14.863281 -35.109375 13.78125 -37.453125 C 12.707031 -39.796875 11.535156 -42.265625 10.265625 -44.859375 C 9.003906 -47.460938 7.546875 -50.394531 5.890625 -53.65625 C 5.046875 -55.34375 4.234375 -56.851562 3.453125 -58.1875 C 2.671875 -59.519531 1.734375 -60.523438 0.640625 -61.203125 Z M 0.640625 -61.203125 "/></g></g></g><g fill="#a1e3f9" fill-opacity="1"><g transform="translate(206.40952, 66.550441)"><g/></g></g><g fill="#a1e3f9" fill-opacity="1"><g transform="translate(225.436915, 66.550441)"><g><path d="M 3.484375 -53.34375 C 3.484375 -54.945312 3.289062 -56.5 2.90625 -58 C 2.53125 -59.5 1.984375 -60.566406 1.265625 -61.203125 L 31.140625 -61.203125 C 33.296875 -61.203125 35.410156 -60.863281 37.484375 -60.1875 C 39.554688 -59.507812 41.414062 -58.515625 43.0625 -57.203125 C 44.707031 -55.890625 46.015625 -54.289062 46.984375 -52.40625 C 47.960938 -50.53125 48.453125 -48.390625 48.453125 -45.984375 C 48.453125 -42.847656 47.59375 -40.085938 45.875 -37.703125 C 44.164062 -35.316406 41.914062 -33.65625 39.125 -32.71875 C 40.519531 -32.71875 41.957031 -32.453125 43.4375 -31.921875 C 44.914062 -31.398438 46.300781 -30.546875 47.59375 -29.359375 C 48.882812 -28.179688 49.929688 -26.640625 50.734375 -24.734375 C 51.535156 -22.828125 51.9375 -20.546875 51.9375 -17.890625 C 51.9375 -14.796875 51.113281 -11.882812 49.46875 -9.15625 C 47.820312 -6.4375 45.296875 -4.226562 41.890625 -2.53125 C 38.484375 -0.84375 34.179688 0 28.984375 0 L 1.265625 0 C 1.984375 -0.632812 2.53125 -1.710938 2.90625 -3.234375 C 3.289062 -4.753906 3.484375 -6.296875 3.484375 -7.859375 Z M 28.671875 -26.515625 L 17.765625 -26.515625 L 17.765625 -11.921875 L 28.671875 -11.921875 C 31.796875 -11.921875 34.078125 -12.617188 35.515625 -14.015625 C 36.953125 -15.410156 37.671875 -17.144531 37.671875 -19.21875 C 37.671875 -21.332031 36.953125 -23.078125 35.515625 -24.453125 C 34.078125 -25.828125 31.796875 -26.515625 28.671875 -26.515625 Z M 17.765625 -49.28125 L 17.765625 -37.859375 L 27.90625 -37.859375 C 29.632812 -37.859375 31.082031 -38.414062 32.25 -39.53125 C 33.414062 -40.65625 34 -42.003906 34 -43.578125 C 34 -45.140625 33.414062 -46.476562 32.25 -47.59375 C 31.082031 -48.71875 29.632812 -49.28125 27.90625 -49.28125 Z M 17.765625 -49.28125 "/></g></g></g><g fill="#a1e3f9" fill-opacity="1"><g transform="translate(278.650216, 66.550441)"><g><path d="M 32.53125 0.953125 C 27.925781 0.953125 23.757812 0.128906 20.03125 -1.515625 C 16.3125 -3.171875 13.117188 -5.445312 10.453125 -8.34375 C 7.796875 -11.238281 5.757812 -14.585938 4.34375 -18.390625 C 2.925781 -22.191406 2.21875 -26.269531 2.21875 -30.625 C 2.21875 -34.988281 2.925781 -39.070312 4.34375 -42.875 C 5.757812 -46.675781 7.796875 -50.023438 10.453125 -52.921875 C 13.117188 -55.816406 16.3125 -58.078125 20.03125 -59.703125 C 23.757812 -61.335938 27.925781 -62.15625 32.53125 -62.15625 C 37.0625 -62.15625 41.226562 -61.519531 45.03125 -60.25 C 48.832031 -58.976562 51.960938 -56.992188 54.421875 -54.296875 C 53.867188 -52.984375 53.347656 -51.628906 52.859375 -50.234375 C 52.378906 -48.835938 51.945312 -47.546875 51.5625 -46.359375 C 51.175781 -45.171875 50.867188 -44.207031 50.640625 -43.46875 C 50.410156 -42.726562 50.296875 -42.359375 50.296875 -42.359375 C 50.296875 -42.359375 50.007812 -42.75 49.4375 -43.53125 C 48.863281 -44.320312 47.953125 -45.210938 46.703125 -46.203125 C 45.460938 -47.191406 43.867188 -48.078125 41.921875 -48.859375 C 39.972656 -49.648438 37.625 -50.046875 34.875 -50.046875 C 31.625 -50.046875 28.601562 -49.328125 25.8125 -47.890625 C 23.019531 -46.453125 20.765625 -44.296875 19.046875 -41.421875 C 17.335938 -38.546875 16.484375 -34.925781 16.484375 -30.5625 C 16.484375 -28.707031 16.648438 -26.984375 16.984375 -25.390625 C 17.328125 -23.804688 17.816406 -22.363281 18.453125 -21.0625 C 18.242188 -24.613281 18.816406 -27.816406 20.171875 -30.671875 C 21.523438 -33.523438 23.476562 -35.796875 26.03125 -37.484375 C 28.59375 -39.171875 31.539062 -40.015625 34.875 -40.015625 C 36.1875 -40.015625 37.488281 -39.851562 38.78125 -39.53125 C 40.070312 -39.21875 41.210938 -38.785156 42.203125 -38.234375 C 43.203125 -37.691406 43.867188 -37.101562 44.203125 -36.46875 L 44.203125 -22.453125 C 42.929688 -23.546875 41.15625 -24.535156 38.875 -25.421875 C 36.59375 -26.316406 34.207031 -26.765625 31.71875 -26.765625 C 29.175781 -26.765625 26.890625 -26.4375 24.859375 -25.78125 C 22.828125 -25.125 21.378906 -24.128906 20.515625 -22.796875 C 19.648438 -21.460938 19.660156 -19.757812 20.546875 -17.6875 C 22.285156 -15.53125 24.398438 -13.910156 26.890625 -12.828125 C 29.378906 -11.753906 32.039062 -11.21875 34.875 -11.21875 C 37.625 -11.21875 39.972656 -11.609375 41.921875 -12.390625 C 43.867188 -13.179688 45.460938 -14.070312 46.703125 -15.0625 C 47.953125 -16.050781 48.863281 -16.9375 49.4375 -17.71875 C 50.007812 -18.507812 50.296875 -18.90625 50.296875 -18.90625 C 50.296875 -18.90625 50.410156 -18.535156 50.640625 -17.796875 C 50.867188 -17.054688 51.175781 -16.09375 51.5625 -14.90625 C 51.945312 -13.71875 52.378906 -12.425781 52.859375 -11.03125 C 53.347656 -9.632812 53.867188 -8.28125 54.421875 -6.96875 C 51.960938 -4.269531 48.832031 -2.273438 45.03125 -0.984375 C 41.226562 0.304688 37.0625 0.953125 32.53125 0.953125 Z M 32.53125 0.953125 "/></g></g></g><g fill="#a1e3f9" fill-opacity="1"><g transform="translate(331.482928, 66.550441)"><g><path d="M 6.65625 0 C 5.644531 -3 4.8125 -5.820312 4.15625 -8.46875 C 3.5 -11.113281 3.007812 -13.828125 2.6875 -16.609375 C 2.375 -19.398438 2.21875 -22.507812 2.21875 -25.9375 C 2.21875 -29.40625 2.660156 -32.882812 3.546875 -36.375 C 4.441406 -39.863281 5.765625 -43.148438 7.515625 -46.234375 C 9.265625 -49.316406 11.421875 -52.050781 13.984375 -54.4375 C 16.546875 -56.832031 19.515625 -58.71875 22.890625 -60.09375 C 26.273438 -61.46875 30.019531 -62.15625 34.125 -62.15625 C 36.113281 -62.15625 38.054688 -61.929688 39.953125 -61.484375 C 41.859375 -61.046875 43.550781 -60.398438 45.03125 -59.546875 C 46.507812 -58.703125 47.546875 -57.710938 48.140625 -56.578125 L 48.140625 -7.921875 C 48.140625 -6.359375 48.328125 -4.804688 48.703125 -3.265625 C 49.085938 -1.722656 49.640625 -0.632812 50.359375 0 L 31.640625 0 C 32.359375 -0.632812 32.910156 -1.710938 33.296875 -3.234375 C 33.679688 -4.753906 33.875 -6.296875 33.875 -7.859375 L 33.875 -18.265625 L 16.875 -18.265625 C 17.332031 -14.671875 18.175781 -11.382812 19.40625 -8.40625 C 20.632812 -5.425781 22.242188 -2.625 24.234375 0 Z M 16.9375 -30.3125 L 33.875 -30.3125 L 33.9375 -49.09375 C 31.144531 -49.09375 28.753906 -48.519531 26.765625 -47.375 C 24.773438 -46.226562 23.101562 -44.710938 21.75 -42.828125 C 20.394531 -40.953125 19.335938 -38.925781 18.578125 -36.75 C 17.816406 -34.570312 17.269531 -32.425781 16.9375 -30.3125 Z M 16.9375 -30.3125 "/></g></g></g><g fill="#a1e3f9" fill-opacity="1"><g transform="translate(382.476367, 66.550441)"><g><path d="M 3.484375 -53.28125 C 3.484375 -54.882812 3.289062 -56.445312 2.90625 -57.96875 C 2.53125 -59.488281 1.984375 -60.566406 1.265625 -61.203125 L 27.78125 -61.203125 C 30.269531 -61.203125 32.769531 -60.789062 35.28125 -59.96875 C 37.800781 -59.144531 40.097656 -57.90625 42.171875 -56.25 C 44.242188 -54.601562 45.90625 -52.5625 47.15625 -50.125 C 48.40625 -47.695312 49.03125 -44.878906 49.03125 -41.671875 C 49.03125 -37.273438 47.832031 -33.613281 45.4375 -30.6875 C 43.050781 -27.769531 39.976562 -25.742188 36.21875 -24.609375 L 39.828125 -15.03125 C 41.609375 -10.332031 43.257812 -6.800781 44.78125 -4.4375 C 46.300781 -2.070312 47.648438 -0.59375 48.828125 0 L 27.90625 0 C 28.375 -0.550781 28.640625 -1.332031 28.703125 -2.34375 C 28.765625 -3.363281 28.5 -4.59375 27.90625 -6.03125 L 17.765625 -34.1875 L 17.765625 -7.859375 C 17.765625 -6.296875 17.953125 -4.753906 18.328125 -3.234375 C 18.710938 -1.710938 19.265625 -0.632812 19.984375 0 L 1.265625 0 C 1.984375 -0.632812 2.53125 -1.722656 2.90625 -3.265625 C 3.289062 -4.804688 3.484375 -6.359375 3.484375 -7.921875 Z M 17.765625 -34.1875 L 26.828125 -34.1875 C 28.640625 -34.1875 30.140625 -34.566406 31.328125 -35.328125 C 32.515625 -36.085938 33.398438 -37.046875 33.984375 -38.203125 C 34.578125 -39.367188 34.875 -40.523438 34.875 -41.671875 C 34.875 -43.660156 34.207031 -45.40625 32.875 -46.90625 C 31.550781 -48.40625 29.578125 -49.15625 26.953125 -49.15625 L 17.765625 -49.15625 Z M 17.765625 -34.1875 "/></g></g></g><g clip-path="url(#1f790665be)"><g clip-path="url(#63699e19c2)"><path fill="#fdb7ea" d="M 439.953125 50.988281 L 456.832031 50.988281 L 456.832031 67.863281 L 439.953125 67.863281 Z M 439.953125 50.988281 " fill-opacity="1" fill-rule="nonzero"/></g></g></svg>