<svg xmlns="http://www.w3.org/2000/svg" xmlns:xlink="http://www.w3.org/1999/xlink" width="41" zoomAndPan="magnify" viewBox="0 0 30.75 30.000001" height="40" preserveAspectRatio="xMidYMid meet" version="1.0"><defs><clipPath id="b628a851da"><path d="M 0.375 0 L 30.132812 0 L 30.132812 29.03125 L 0.375 29.03125 Z M 0.375 0 " clip-rule="nonzero"/></clipPath><clipPath id="2e8be09ca8"><path d="M 2 1.761719 L 28.664062 1.761719 L 28.664062 27.164062 L 2 27.164062 Z M 2 1.761719 " clip-rule="nonzero"/></clipPath></defs><g clip-path="url(#b628a851da)"><path fill="#ffffff" d="M 0.375 0 L 30.132812 0 L 30.132812 29.03125 L 0.375 29.03125 Z M 0.375 0 " fill-opacity="1" fill-rule="nonzero"/><path fill="#ffffff" d="M 0.375 0 L 30.132812 0 L 30.132812 29.03125 L 0.375 29.03125 Z M 0.375 0 " fill-opacity="1" fill-rule="nonzero"/></g><g clip-path="url(#2e8be09ca8)"><path fill="#c9b194" d="M 15.785156 2.25 L 18.792969 10.070312 C 18.875 10.28125 19.066406 10.425781 19.289062 10.4375 L 27.949219 11.039062 C 28.46875 11.074219 28.675781 11.730469 28.273438 12.058594 L 21.234375 17.789062 C 21.050781 17.941406 20.976562 18.183594 21.050781 18.410156 L 23.539062 26.324219 C 23.695312 26.832031 23.144531 27.261719 22.691406 26.988281 L 15.542969 22.664062 C 15.363281 22.550781 15.132812 22.550781 14.949219 22.664062 L 7.800781 26.988281 C 7.347656 27.261719 6.796875 26.832031 6.957031 26.324219 L 9.445312 18.410156 C 9.515625 18.183594 9.441406 17.941406 9.257812 17.789062 L 2.222656 12.058594 C 1.816406 11.730469 2.023438 11.074219 2.546875 11.039062 L 11.203125 10.4375 C 11.425781 10.425781 11.621094 10.28125 11.699219 10.070312 L 14.710938 2.25 C 14.898438 1.757812 15.59375 1.757812 15.785156 2.25 " fill-opacity="1" fill-rule="nonzero"/></g></svg>