<svg xmlns="http://www.w3.org/2000/svg" xmlns:xlink="http://www.w3.org/1999/xlink" width="41" zoomAndPan="magnify" viewBox="0 0 30.75 30.000001" height="40" preserveAspectRatio="xMidYMid meet" version="1.0"><defs><filter x="0%" y="0%" width="100%" height="100%" id="e3903d71ad"><feColorMatrix values="0 0 0 0 1 0 0 0 0 1 0 0 0 0 1 0 0 0 1 0" color-interpolation-filters="sRGB"/></filter><clipPath id="2d2421263c"><path d="M 0.375 0 L 30.132812 0 L 30.132812 29.03125 L 0.375 29.03125 Z M 0.375 0 " clip-rule="nonzero"/></clipPath><clipPath id="0ff1a313d8"><path d="M 0.375 0 L 30.132812 0 L 30.132812 29 L 0.375 29 Z M 0.375 0 " clip-rule="nonzero"/></clipPath><mask id="ffbf7cd407"><g filter="url(#e3903d71ad)"><rect x="-3.075" width="36.9" fill="#000000" y="-3" height="36.000001" fill-opacity="0.15"/></g></mask><clipPath id="8e7695f5bf"><path d="M 0.375 0.335938 L 30.132812 0.335938 L 30.132812 28.699219 L 0.375 28.699219 Z M 0.375 0.335938 " clip-rule="nonzero"/></clipPath><clipPath id="6013ec42df"><path d="M 15.253906 0.335938 L 18.765625 11.167969 L 30.132812 11.167969 L 20.9375 17.863281 L 24.449219 28.699219 L 15.253906 22.003906 L 6.058594 28.699219 L 9.570312 17.863281 L 0.375 11.167969 L 11.742188 11.167969 Z M 15.253906 0.335938 " clip-rule="nonzero"/></clipPath><clipPath id="1effe7b5d3"><rect x="0" width="31" y="0" height="29"/></clipPath></defs><g clip-path="url(#2d2421263c)"><path fill="#ffffff" d="M 0.375 0 L 30.132812 0 L 30.132812 29.03125 L 0.375 29.03125 Z M 0.375 0 " fill-opacity="1" fill-rule="nonzero"/><path fill="#ffffff" d="M 0.375 0 L 30.132812 0 L 30.132812 29.03125 L 0.375 29.03125 Z M 0.375 0 " fill-opacity="1" fill-rule="nonzero"/></g><g clip-path="url(#0ff1a313d8)"><g mask="url(#ffbf7cd407)"><g transform="matrix(1, 0, 0, 1, 0, 0.00000000000000569)"><g clip-path="url(#1effe7b5d3)"><g clip-path="url(#8e7695f5bf)"><g clip-path="url(#6013ec42df)"><path fill="#000000" d="M 0.375 0.335938 L 30.179688 0.335938 L 30.179688 28.699219 L 0.375 28.699219 Z M 0.375 0.335938 " fill-opacity="1" fill-rule="nonzero"/></g></g></g></g></g></g></svg>