<svg xmlns="http://www.w3.org/2000/svg" xmlns:xlink="http://www.w3.org/1999/xlink" width="41" zoomAndPan="magnify" viewBox="0 0 30.75 30.000001" height="40" preserveAspectRatio="xMidYMid meet" version="1.0"><defs><filter x="0%" y="0%" width="100%" height="100%" id="6822ff9b16"><feColorMatrix values="0 0 0 0 1 0 0 0 0 1 0 0 0 0 1 0 0 0 1 0" color-interpolation-filters="sRGB"/></filter><clipPath id="e8073645fd"><path d="M 0.375 0 L 30.132812 0 L 30.132812 29.03125 L 0.375 29.03125 Z M 0.375 0 " clip-rule="nonzero"/></clipPath><mask id="5eb57bff3d"><g filter="url(#6822ff9b16)"><rect x="-3.075" width="36.9" fill="#000000" y="-3" height="36.000001" fill-opacity="0.3"/></g></mask><clipPath id="7b56e8c1b0"><path d="M 1 0.859375 L 27.664062 0.859375 L 27.664062 26.164062 L 1 26.164062 Z M 1 0.859375 " clip-rule="nonzero"/></clipPath><clipPath id="9de12e1667"><rect x="0" width="28" y="0" height="27"/></clipPath></defs><g clip-path="url(#e8073645fd)"><path fill="#ffffff" d="M 0.375 0 L 30.132812 0 L 30.132812 29.03125 L 0.375 29.03125 Z M 0.375 0 " fill-opacity="1" fill-rule="nonzero"/><path fill="#ffffff" d="M 0.375 0 L 30.132812 0 L 30.132812 29.03125 L 0.375 29.03125 Z M 0.375 0 " fill-opacity="1" fill-rule="nonzero"/></g><g mask="url(#5eb57bff3d)"><g transform="matrix(1, 0, 0, 1, 1, 1)"><g clip-path="url(#9de12e1667)"><g clip-path="url(#7b56e8c1b0)"><path fill="#c9b194" d="M 14.785156 1.25 L 17.792969 9.070312 C 17.875 9.28125 18.066406 9.425781 18.289062 9.4375 L 26.949219 10.039062 C 27.46875 10.074219 27.675781 10.730469 27.273438 11.058594 L 20.234375 16.789062 C 20.050781 16.941406 19.976562 17.183594 20.050781 17.410156 L 22.539062 25.324219 C 22.695312 25.832031 22.144531 26.261719 21.691406 25.988281 L 14.542969 21.664062 C 14.363281 21.550781 14.132812 21.550781 13.949219 21.664062 L 6.800781 25.988281 C 6.347656 26.261719 5.796875 25.832031 5.957031 25.324219 L 8.445312 17.410156 C 8.515625 17.183594 8.441406 16.941406 8.257812 16.789062 L 1.222656 11.058594 C 0.816406 10.730469 1.023438 10.074219 1.546875 10.039062 L 10.203125 9.4375 C 10.425781 9.425781 10.621094 9.28125 10.699219 9.070312 L 13.710938 1.25 C 13.898438 0.757812 14.59375 0.757812 14.785156 1.25 " fill-opacity="1" fill-rule="nonzero"/></g></g></g></g></svg>